<svg
                width="381"
                height="176"
                viewBox="0 0 381 176"
                fill="none"
                xmlns="http://www.w3.org/2000/svg"
              >
                <path
                  d="M0.5055 160.554C-1.3978 166.902 2.20554 173.591 8.55378 175.495C14.902 177.398 21.5912 173.794 23.4945 167.446L0.5055 160.554ZM146.001 18.4665L142.624 6.95124L142.624 6.95124L146.001 18.4665ZM350.55 139.927C357.107 140.893 363.206 136.361 364.172 129.804L379.917 22.9583C380.884 16.4017 376.352 10.3032 369.795 9.33701C363.239 8.37078 357.14 12.9027 356.174 19.4593L342.178 114.434L247.203 100.437C240.647 99.4711 234.548 104.003 233.582 110.56C232.616 117.116 237.148 123.215 243.704 124.181L350.55 139.927ZM12 164C23.4945 167.446 23.4934 167.45 23.4925 167.453C23.4924 167.453 23.4916 167.456 23.4913 167.457C23.4907 167.459 23.4907 167.459 23.4912 167.457C23.4922 167.454 23.4954 167.443 23.5006 167.426C23.5111 167.392 23.5301 167.33 23.5577 167.242C23.6129 167.065 23.7024 166.782 23.8273 166.399C24.0769 165.631 24.4673 164.464 25.0053 162.945C26.0819 159.906 27.7463 155.47 30.053 150.029C34.6745 139.129 41.8298 124.299 51.932 108.629C72.2542 77.1079 103.715 43.3702 149.377 29.9817L142.624 6.95124C89.2096 22.6128 53.6697 61.642 31.7607 95.6248C20.7474 112.707 12.9796 128.814 7.95675 140.662C5.44129 146.595 3.6033 151.486 2.38293 154.931C1.7725 156.654 1.31583 158.018 1.00554 158.971C0.850371 159.448 0.731739 159.822 0.648723 160.088C0.607213 160.221 0.5746 160.327 0.550769 160.405C0.538854 160.444 0.529133 160.476 0.521593 160.5C0.517823 160.513 0.514599 160.524 0.511917 160.532C0.510577 160.537 0.50897 160.542 0.508302 160.544C0.506833 160.549 0.5055 160.554 12 164ZM149.377 29.9817C186.578 19.074 217.848 23.3446 248.004 40.6514C278.848 58.3526 309.084 90.0183 342.668 135.212L361.932 120.897C327.825 75.0008 295.193 40.0615 259.95 19.8358C224.021 -0.78436 185.986 -5.76267 142.624 6.95124L149.377 29.9817Z"
                  fill="black"
                />
              </svg>