<svg
                viewBox="0 0 399 450"
                fill="none"
                xmlns="http://www.w3.org/2000/svg"
                
              >
                <path
                  d="M178.954 1.05649C173.5 0.582192 167.5 3.06882 164 9.48514C161 14.9849 160 24.1395 165.954 27.0565C240.454 63.5565 277.454 197.057 201.454 288.057C125.454 379.057 20.954 342.557 18.454 342.557C15.954 342.557 12.954 341.057 5.95399 347.557C0.353992 352.757 0.620659 360.39 1.45399 363.557C51.954 437.057 177.517 462.435 240.454 441.557C310 418.485 328.5 389.985 353.454 363.557C395.48 319.047 427.454 180.557 353.454 88.5565C279.454 -3.44347 190.454 2.05658 178.954 1.05649Z"
                  fill="#FAFAFA"
                  stroke="#FAFAFA"
                />
              </svg>