<svg
                width="376"
                height="165"
                viewBox="0 0 376 165"
                fill="none"
                xmlns="http://www.w3.org/2000/svg"
              >
                <path
                  d="M375.305 149.031C377.359 155.332 373.916 162.105 367.615 164.159C361.314 166.213 354.541 162.77 352.487 156.469L375.305 149.031ZM230 19L233.124 7.41391L230 19ZM25.1291 131.648C18.5387 132.348 12.6287 127.573 11.9287 120.982L0.521276 13.5866C-0.17874 6.99628 4.59631 1.08628 11.1867 0.386263C17.777 -0.313753 23.687 4.4613 24.387 11.0516L34.527 106.515L129.99 96.3747C136.58 95.6747 142.49 100.45 143.19 107.04C143.89 113.63 139.115 119.54 132.525 120.24L25.1291 131.648ZM363.896 152.75C352.487 156.469 352.488 156.473 352.489 156.476C352.49 156.477 352.491 156.48 352.491 156.481C352.492 156.483 352.492 156.484 352.492 156.483C352.491 156.482 352.489 156.474 352.484 156.46C352.475 156.431 352.457 156.378 352.43 156.3C352.377 156.144 352.29 155.89 352.168 155.544C351.923 154.852 351.538 153.793 351.005 152.411C349.94 149.646 348.29 145.599 345.999 140.629C341.41 130.673 334.296 117.111 324.247 102.774C304.075 73.9976 272.694 42.9422 226.876 30.5861L233.124 7.41391C286.306 21.7558 321.873 57.5752 343.899 88.9987C354.949 104.762 362.747 119.632 367.795 130.582C370.322 136.066 372.171 140.591 373.401 143.785C374.017 145.382 374.478 146.649 374.793 147.538C374.95 147.983 375.071 148.333 375.156 148.584C375.199 148.709 375.232 148.81 375.257 148.884C375.27 148.922 375.28 148.953 375.288 148.977C375.292 148.989 375.295 149 375.298 149.009C375.3 149.013 375.301 149.019 375.302 149.021C375.304 149.026 375.305 149.031 363.896 152.75ZM226.876 30.5861C189.457 20.4951 157.959 24.469 127.709 40.4359C96.875 56.7116 66.702 85.7863 33.1956 127.257L14.5275 112.173C48.6596 69.9288 81.3058 37.7915 116.506 19.2112C152.291 0.322058 190.043 -4.20403 233.124 7.41391L226.876 30.5861Z"
                  fill="#FAFAFA"
                />
              </svg>