<svg width="397" height="448" viewBox="0 0 397 448" fill="none" xmlns="http://www.w3.org/2000/svg">
<path d="M177.954 0.0564947C172.5 -0.417808 166.5 2.06882 163 8.48514C160 13.9849 159 23.1395 164.954 26.0565C239.454 62.5565 276.454 196.057 200.454 287.057C124.454 378.057 19.954 341.557 17.454 341.557C14.954 341.557 11.954 340.057 4.95399 346.557C-0.646008 351.757 -0.379341 359.39 0.453992 362.557C50.954 436.057 176.517 461.435 239.454 440.557C309 417.485 327.5 388.985 352.454 362.557C394.48 318.047 426.454 179.557 352.454 87.5565C278.454 -4.44347 189.454 1.05658 177.954 0.0564947Z" fill="#D9D9D9"/>
</svg>
