<svg width="453" height="438" viewBox="0 0 453 438" fill="none" xmlns="http://www.w3.org/2000/svg">
<path d="M144.5 10H18C13.5817 10 10 13.5284 10 17.9467V355C10 381.5 25 428 82.5 428C132.5 428 152.333 379.5 152.5 355V18C152.5 13.5818 148.918 10 144.5 10Z" stroke="black" stroke-width="20"/>
<path d="M376.362 160.064L286.955 70.6569C283.831 67.5327 278.73 67.5672 275.61 70.6953C207 139.474 221.065 128.663 206.465 143.263V338.763L376.319 171.419C379.483 168.302 379.502 163.204 376.362 160.064Z" stroke="black" stroke-width="20"/>
<path d="M442.495 416.44V290C442.495 285.582 438.863 281.999 434.445 282.005C337.297 282.125 354.887 284.425 334.239 284.425L196 422.664L434.435 424.44C438.876 424.473 442.495 420.882 442.495 416.44Z" stroke="black" stroke-width="20"/>
<rect x="58.5" y="50" width="46" height="46" fill="black"/>
<rect x="285.527" y="133" width="46" height="46" transform="rotate(45 285.527 133)" fill="black"/>
<rect x="351" y="330" width="46" height="46" fill="black"/>
<rect x="58.5" y="166" width="46" height="46" fill="black"/>
<circle cx="81.5" cy="353" r="23" fill="black"/>
</svg>
