<svg width="442" height="442" viewBox="0 0 442 442" fill="none" xmlns="http://www.w3.org/2000/svg">
<path d="M0 27.625C0 12.3449 12.3449 0 27.625 0H138.125C153.405 0 165.75 12.3449 165.75 27.625V359.125C165.75 404.879 128.629 442 82.875 442C37.1211 442 0 404.879 0 359.125V27.625ZM193.03 367.671C193.289 364.823 193.375 361.974 193.375 359.125V132.945L258.466 67.8539C269.257 57.0629 286.782 57.0629 297.573 67.8539L375.7 145.981C386.491 156.772 386.491 174.296 375.7 185.087L193.03 367.671ZM157.808 442L323.558 276.25H414.375C429.655 276.25 442 288.595 442 303.875V414.375C442 429.655 429.655 442 414.375 442H157.808ZM110.5 55.25H55.25V110.5H110.5V55.25ZM55.25 165.75V221H110.5V165.75H55.25ZM82.875 379.844C88.37 379.844 93.6399 377.661 97.5254 373.775C101.411 369.89 103.594 364.62 103.594 359.125C103.594 353.63 101.411 348.36 97.5254 344.475C93.6399 340.589 88.37 338.406 82.875 338.406C77.38 338.406 72.1101 340.589 68.2246 344.475C64.3391 348.36 62.1562 353.63 62.1562 359.125C62.1562 364.62 64.3391 369.89 68.2246 373.775C72.1101 377.661 77.38 379.844 82.875 379.844Z" fill="black"/>
</svg>
