<svg width="448" height="448" viewBox="0 0 448 448" fill="none" xmlns="http://www.w3.org/2000/svg">
<path d="M0 64C0 28.7 28.7 0 64 0H384C419.3 0 448 28.7 448 64V384C448 419.3 419.3 448 384 448H64C28.7 448 0 419.3 0 384V64ZM160 128C160 119.513 156.629 111.374 150.627 105.373C144.626 99.3714 136.487 96 128 96C119.513 96 111.374 99.3714 105.373 105.373C99.3714 111.374 96 119.513 96 128C96 136.487 99.3714 144.626 105.373 150.627C111.374 156.629 119.513 160 128 160C136.487 160 144.626 156.629 150.627 150.627C156.629 144.626 160 136.487 160 128ZM128 352C136.487 352 144.626 348.629 150.627 342.627C156.629 336.626 160 328.487 160 320C160 311.513 156.629 303.374 150.627 297.373C144.626 291.371 136.487 288 128 288C119.513 288 111.374 291.371 105.373 297.373C99.3714 303.374 96 311.513 96 320C96 328.487 99.3714 336.626 105.373 342.627C111.374 348.629 119.513 352 128 352ZM352 128C352 119.513 348.629 111.374 342.627 105.373C336.626 99.3714 328.487 96 320 96C311.513 96 303.374 99.3714 297.373 105.373C291.371 111.374 288 119.513 288 128C288 136.487 291.371 144.626 297.373 150.627C303.374 156.629 311.513 160 320 160C328.487 160 336.626 156.629 342.627 150.627C348.629 144.626 352 136.487 352 128ZM320 352C328.487 352 336.626 348.629 342.627 342.627C348.629 336.626 352 328.487 352 320C352 311.513 348.629 303.374 342.627 297.373C336.626 291.371 328.487 288 320 288C311.513 288 303.374 291.371 297.373 297.373C291.371 303.374 288 311.513 288 320C288 328.487 291.371 336.626 297.373 342.627C303.374 348.629 311.513 352 320 352Z" fill="black"/>
</svg>
