<svg width="448" height="448" viewBox="0 0 448 448" fill="none" xmlns="http://www.w3.org/2000/svg">
<path d="M6 64C6 32.0137 32.0137 6 64 6H384C415.986 6 442 32.0137 442 64V384C442 415.986 415.986 442 384 442H64C32.0137 442 6 415.986 6 384V64ZM154.87 101.13C147.744 94.0036 138.078 90 128 90C117.922 90 108.256 94.0036 101.13 101.13C94.0036 108.256 90 117.922 90 128C90 138.078 94.0036 147.744 101.13 154.87C108.256 161.996 117.922 166 128 166C138.078 166 147.744 161.996 154.87 154.87C161.996 147.744 166 138.078 166 128C166 117.922 161.996 108.256 154.87 101.13ZM101.13 293.13C94.0036 300.256 90 309.922 90 320C90 330.078 94.0036 339.744 101.13 346.87C108.256 353.996 117.922 358 128 358C138.078 358 147.744 353.996 154.87 346.87C161.996 339.744 166 330.078 166 320C166 309.922 161.996 300.256 154.87 293.13C147.744 286.004 138.078 282 128 282C117.922 282 108.256 286.004 101.13 293.13ZM250.87 197.13C243.744 190.004 234.078 186 224 186C213.922 186 204.256 190.004 197.13 197.13C190.004 204.256 186 213.922 186 224C186 234.078 190.004 243.744 197.13 250.87C204.256 257.996 213.922 262 224 262C234.078 262 243.744 257.996 250.87 250.87C257.996 243.744 262 234.078 262 224C262 213.922 257.996 204.256 250.87 197.13ZM293.13 101.13C286.004 108.256 282 117.922 282 128C282 138.078 286.004 147.744 293.13 154.87C300.256 161.996 309.922 166 320 166C330.078 166 339.744 161.996 346.87 154.87C353.996 147.744 358 138.078 358 128C358 117.922 353.996 108.256 346.87 101.13C339.744 94.0036 330.078 90 320 90C309.922 90 300.256 94.0036 293.13 101.13ZM346.87 293.13C339.744 286.004 330.078 282 320 282C309.922 282 300.256 286.004 293.13 293.13C286.004 300.256 282 309.922 282 320C282 330.078 286.004 339.744 293.13 346.87C300.256 353.996 309.922 358 320 358C330.078 358 339.744 353.996 346.87 346.87C353.996 339.744 358 330.078 358 320C358 309.922 353.996 300.256 346.87 293.13Z" stroke="black" stroke-width="12"/>
</svg>
