<svg width="441" height="252" viewBox="0 0 441 252" fill="none" xmlns="http://www.w3.org/2000/svg">
<path d="M440.834 239.421C440.849 246.049 435.489 251.434 428.862 251.449C422.234 251.464 416.85 246.104 416.834 239.476L440.834 239.421ZM286.388 54.8519L290.681 43.6459L290.681 43.6459L286.388 54.8519ZM10.9541 131.878C4.35323 131.285 -0.517287 125.454 0.0754828 118.853L9.73522 11.2856C10.328 4.6847 16.1596 -0.185811 22.7604 0.406959C29.3613 0.999728 34.2318 6.83131 33.639 13.4322L25.0526 109.047L120.668 117.634C127.269 118.227 132.139 124.058 131.546 130.659C130.954 137.26 125.122 142.13 118.521 141.538L10.9541 131.878ZM428.834 239.449C416.834 239.476 416.834 239.482 416.834 239.488C416.834 239.489 416.834 239.494 416.834 239.496C416.834 239.501 416.834 239.503 416.834 239.504C416.834 239.506 416.834 239.499 416.834 239.485C416.834 239.458 416.833 239.399 416.831 239.311C416.828 239.135 416.821 238.84 416.805 238.432C416.774 237.616 416.71 236.35 416.58 234.683C416.32 231.349 415.796 226.423 414.741 220.3C412.628 208.038 408.405 191.085 399.988 172.526C383.257 135.635 349.815 91.9982 282.096 66.0579L290.681 43.6459C365.109 72.1561 402.89 120.817 421.845 162.613C431.271 183.397 436.007 202.384 438.392 216.225C439.586 223.154 440.196 228.822 440.507 232.817C440.663 234.816 440.745 236.399 440.787 237.516C440.809 238.075 440.82 238.517 440.827 238.836C440.83 238.996 440.832 239.125 440.833 239.223C440.833 239.272 440.834 239.313 440.834 239.346C440.834 239.363 440.834 239.377 440.834 239.39C440.834 239.396 440.834 239.404 440.834 239.407C440.834 239.414 440.834 239.421 428.834 239.449ZM282.096 66.0579C219.006 41.8907 153.981 56.8851 103.527 79.0311C78.4415 90.0419 57.3905 102.639 42.6128 112.489C35.2343 117.407 29.4474 121.621 25.5334 124.583C23.5771 126.063 22.0908 127.229 21.1096 128.011C20.6191 128.402 20.2551 128.697 20.0219 128.888C19.9053 128.983 19.8215 129.052 19.7709 129.094C19.7457 129.115 19.7287 129.129 19.7201 129.136C19.7159 129.139 19.7137 129.141 19.7136 129.141C19.7136 129.141 19.7151 129.14 19.7151 129.14C19.7171 129.138 19.7197 129.136 12.0274 119.926C4.33506 110.716 4.33871 110.713 4.34289 110.709C4.34499 110.707 4.34972 110.704 4.35393 110.7C4.36237 110.693 4.37294 110.684 4.38564 110.674C4.41105 110.653 4.44497 110.624 4.48735 110.589C4.5721 110.519 4.69066 110.422 4.84249 110.298C5.14612 110.05 5.58287 109.696 6.14832 109.245C7.27907 108.344 8.92528 107.054 11.0515 105.445C15.3025 102.228 21.4806 97.7313 29.3018 92.5182C44.9234 82.1059 67.2107 68.7613 93.8809 57.0549C146.938 33.7666 219.094 16.224 290.681 43.6459L282.096 66.0579Z" fill="black"/>
</svg>
