<svg width="447" height="229" viewBox="0 0 447 229" fill="none" xmlns="http://www.w3.org/2000/svg">
<path d="M0.020455 215.605C-0.366273 222.221 4.68365 227.898 11.2998 228.284C17.9159 228.671 23.5928 223.621 23.9796 217.005L0.020455 215.605ZM164.606 39.3829L160.937 27.9575L164.606 39.3829ZM435.252 132.005C441.876 131.795 447.076 126.255 446.866 119.631L443.445 11.6854C443.235 5.06132 437.695 -0.138398 431.071 0.0715105C424.447 0.281419 419.247 5.82147 419.457 12.4456L422.498 108.397L326.546 111.438C319.922 111.648 314.722 117.188 314.932 123.812C315.142 130.436 320.682 135.636 327.306 135.426L435.252 132.005ZM12 216.305C23.9796 217.005 23.9792 217.011 23.9789 217.016C23.9788 217.017 23.9785 217.022 23.9784 217.025C23.9781 217.029 23.978 217.032 23.9779 217.032C23.9778 217.034 23.9782 217.027 23.9792 217.013C23.9811 216.985 23.9851 216.927 23.9918 216.838C24.0053 216.661 24.0293 216.365 24.0679 215.957C24.145 215.14 24.28 213.874 24.5036 212.211C24.9511 208.883 25.752 203.976 27.1505 197.898C29.9513 185.727 35.1231 168.974 44.5738 150.85C63.3606 114.819 99.2105 72.9841 168.274 50.8084L160.937 27.9575C85.0155 52.3352 44.5625 98.9612 23.2929 139.753C12.7153 160.04 6.9205 178.789 3.7617 192.516C2.18033 199.389 1.25321 205.03 0.717646 209.013C0.449735 211.005 0.279401 212.586 0.174097 213.702C0.121435 214.259 0.085006 214.701 0.0607555 215.021C0.0486294 215.18 0.0395455 215.309 0.032998 215.407C0.0297241 215.456 0.0270841 215.497 0.0250148 215.53C0.0239801 215.546 0.023088 215.561 0.0223307 215.573C0.0219531 215.579 0.0214807 215.587 0.0212948 215.59C0.0208582 215.598 0.020455 215.605 12 216.305ZM168.274 50.8084C232.611 30.1505 296.677 48.8251 345.805 73.8496C370.23 86.2913 390.538 100.095 404.739 110.795C411.829 116.137 417.37 120.685 421.111 123.872C422.981 125.465 424.399 126.717 425.335 127.556C425.803 127.975 426.15 128.291 426.372 128.495C426.483 128.597 426.563 128.671 426.611 128.716C426.635 128.738 426.651 128.753 426.659 128.761C426.663 128.765 426.665 128.766 426.666 128.767C426.666 128.767 426.664 128.765 426.664 128.765C426.662 128.763 426.66 128.761 434.872 120.011C443.084 111.262 443.081 111.258 443.077 111.255C443.075 111.253 443.07 111.248 443.066 111.245C443.058 111.237 443.048 111.228 443.036 111.217C443.012 111.194 442.98 111.164 442.939 111.126C442.859 111.052 442.746 110.947 442.601 110.814C442.312 110.549 441.896 110.17 441.357 109.687C440.279 108.72 438.708 107.335 436.675 105.603C432.612 102.142 426.697 97.2892 419.181 91.6265C404.17 80.3163 382.668 65.693 356.698 52.4642C305.034 26.1477 233.967 4.50816 160.937 27.9575L168.274 50.8084Z" fill="black"/>
</svg>
