<svg width="453" height="438" viewBox="0 0 453 438" fill="none" xmlns="http://www.w3.org/2000/svg">
<path d="M144.5 10H18C13.5817 10 10 13.5284 10 17.9467V355C10 381.5 25 428 82.5 428C132.5 428 152.333 379.5 152.5 355V18C152.5 13.5818 148.918 10 144.5 10Z" stroke="#FAFAFA" stroke-width="20"/>
<path d="M376.362 160.064L286.955 70.6568C283.831 67.5326 278.73 67.5671 275.61 70.6952C207 139.474 221.065 128.663 206.465 143.263V338.763L376.319 171.419C379.483 168.302 379.502 163.204 376.362 160.064Z" stroke="#FAFAFA" stroke-width="20"/>
<path d="M442.495 416.44V290C442.495 285.582 438.863 281.999 434.445 282.005C337.297 282.125 354.887 284.425 334.239 284.425L196 422.664L434.435 424.44C438.876 424.473 442.495 420.882 442.495 416.44Z" stroke="#FAFAFA" stroke-width="20"/>
<path d="M105 50H59V96H105V50Z" fill="#FAFAFA"/>
<path d="M319.054 165.527L286.527 133L254 165.527L286.527 198.054L319.054 165.527Z" fill="#FAFAFA"/>
<path d="M397 330H351V376H397V330Z" fill="#FAFAFA"/>
<path d="M105 166H59V212H105V166Z" fill="#FAFAFA"/>
<path d="M82 376C94.7025 376 105 365.703 105 353C105 340.297 94.7025 330 82 330C69.2975 330 59 340.297 59 353C59 365.703 69.2975 376 82 376Z" fill="#FAFAFA"/>
</svg>
