<svg width="321" height="321" viewBox="0 0 321 321" fill="none" xmlns="http://www.w3.org/2000/svg">
<path d="M310.675 54.675C323.175 42.175 323.175 21.875 310.675 9.375C298.175 -3.125 277.875 -3.125 265.375 9.375L160.075 114.775L54.675 9.475C42.175 -3.025 21.875 -3.025 9.375 9.475C-3.125 21.975 -3.125 42.275 9.375 54.775L114.775 160.075L9.475 265.475C-3.025 277.975 -3.025 298.275 9.475 310.775C21.975 323.275 42.275 323.275 54.775 310.775L160.075 205.375L265.475 310.675C277.975 323.175 298.275 323.175 310.775 310.675C323.275 298.175 323.275 277.875 310.775 265.375L205.375 160.075L310.675 54.675Z" fill="black"/>
</svg>
