<?xml version="1.0" encoding="UTF-8"?>
<svg fill="none" viewBox="0 0 2013 1057" xmlns="http://www.w3.org/2000/svg">
<rect width="2013" height="1057" rx="48" fill="#2B2B2B"/>
<path d="m178.03 219.6c-1.734 0-3.2-0.6-4.4-1.8s-1.8-2.667-1.8-4.4 0.6-3.2 1.8-4.4 2.666-1.8 4.4-1.8c1.666 0 3.066 0.6 4.2 1.8 1.2 1.2 1.8 2.667 1.8 4.4s-0.6 3.2-1.8 4.4c-1.134 1.2-2.534 1.8-4.2 1.8zm67.056-47.9h-11.5v47.3h-9.1v-47.3h-7.1v-7.5h7.1v-3.9c0-6.133 1.567-10.6 4.7-13.4 3.2-2.867 8.3-4.3 15.3-4.3v7.6c-4 0-6.833 0.8-8.5 2.4-1.6 1.533-2.4 4.1-2.4 7.7v3.9h11.5v7.5zm33.21-8.4c4.733 0 8.867 1.033 12.4 3.1 3.6 2.067 6.267 4.667 8 7.8v-10h9.2v56c0 5-1.067 9.433-3.2 13.3-2.133 3.933-5.2 7-9.2 9.2-3.933 2.2-8.533 3.3-13.8 3.3-7.2 0-13.2-1.7-18-5.1s-7.633-8.033-8.5-13.9h9c1 3.333 3.067 6 6.2 8 3.133 2.067 6.9 3.1 11.3 3.1 5 0 9.067-1.567 12.2-4.7 3.2-3.133 4.8-7.533 4.8-13.2v-11.5c-1.8 3.2-4.467 5.867-8 8s-7.667 3.2-12.4 3.2c-4.867 0-9.3-1.2-13.3-3.6-3.933-2.4-7.033-5.767-9.3-10.1s-3.4-9.267-3.4-14.8c0-5.6 1.133-10.5 3.4-14.7 2.267-4.267 5.367-7.567 9.3-9.9 4-2.333 8.433-3.5 13.3-3.5zm20.4 28.2c0-4.133-0.833-7.733-2.5-10.8s-3.933-5.4-6.8-7c-2.8-1.667-5.9-2.5-9.3-2.5s-6.5 0.8-9.3 2.4-5.033 3.933-6.7 7-2.5 6.667-2.5 10.8c0 4.2 0.833 7.867 2.5 11 1.667 3.067 3.9 5.433 6.7 7.1 2.8 1.6 5.9 2.4 9.3 2.4s6.5-0.8 9.3-2.4c2.867-1.667 5.133-4.033 6.8-7.1 1.667-3.133 2.5-6.767 2.5-10.9z" fill="#fff"/>
<rect x="119" y="449" width="305" height="248" rx="19" fill="#000" fill-opacity=".1"/>
<rect x="907" y="449" width="441" height="477" rx="19" fill="#000" fill-opacity=".1"/>
<path d="m205.71 503.12c0.72-1.253 1.787-2.293 3.2-3.12 1.44-0.853 3.107-1.28 5-1.28 1.947 0 3.707 0.467 5.28 1.4 1.6 0.933 2.854 2.253 3.76 3.96 0.907 1.68 1.36 3.64 1.36 5.88 0 2.213-0.453 4.187-1.36 5.92-0.906 1.733-2.16 3.08-3.76 4.04-1.573 0.96-3.333 1.44-5.28 1.44-1.866 0-3.52-0.413-4.96-1.24-1.413-0.853-2.493-1.907-3.24-3.16v14.44h-3.64v-32.32h3.64v4.04zm14.88 6.84c0-1.653-0.333-3.093-1-4.32-0.666-1.227-1.573-2.16-2.72-2.8-1.12-0.64-2.36-0.96-3.72-0.96-1.333 0-2.573 0.333-3.72 1-1.12 0.64-2.026 1.587-2.72 2.84-0.666 1.227-1 2.653-1 4.28 0 1.653 0.334 3.107 1 4.36 0.694 1.227 1.6 2.173 2.72 2.84 1.147 0.64 2.387 0.96 3.72 0.96 1.36 0 2.6-0.32 3.72-0.96 1.147-0.667 2.054-1.613 2.72-2.84 0.667-1.253 1-2.72 1-4.4zm12.151-7.32c0.64-1.253 1.547-2.227 2.72-2.92 1.2-0.693 2.654-1.04 4.36-1.04v3.76h-0.96c-4.08 0-6.12 2.213-6.12 6.64v11.92h-3.64v-21.92h3.64v3.56zm31.282 6.56c0 0.693-0.04 1.427-0.12 2.2h-17.52c0.134 2.16 0.867 3.853 2.2 5.08 1.36 1.2 3 1.8 4.92 1.8 1.574 0 2.88-0.36 3.92-1.08 1.067-0.747 1.814-1.733 2.24-2.96h3.92c-0.586 2.107-1.76 3.827-3.52 5.16-1.76 1.307-3.946 1.96-6.56 1.96-2.08 0-3.946-0.467-5.6-1.4-1.626-0.933-2.906-2.253-3.84-3.96-0.933-1.733-1.4-3.733-1.4-6s0.454-4.253 1.36-5.96c0.907-1.707 2.174-3.013 3.8-3.92 1.654-0.933 3.547-1.4 5.68-1.4 2.08 0 3.92 0.453 5.52 1.36s2.827 2.16 3.68 3.76c0.88 1.573 1.32 3.36 1.32 5.36zm-3.76-0.76c0-1.387-0.306-2.573-0.92-3.56-0.613-1.013-1.453-1.773-2.52-2.28-1.04-0.533-2.2-0.8-3.48-0.8-1.84 0-3.413 0.587-4.72 1.76-1.28 1.173-2.013 2.8-2.2 4.88h13.84zm17.485-6.36h-4.6v18.92h-3.64v-18.92h-2.84v-3h2.84v-1.56c0-2.453 0.627-4.24 1.88-5.36 1.28-1.147 3.32-1.72 6.12-1.72v3.04c-1.6 0-2.733 0.32-3.4 0.96-0.64 0.613-0.96 1.64-0.96 3.08v1.56h4.6v3zm6.124-6.56c-0.693 0-1.28-0.24-1.76-0.72s-0.72-1.067-0.72-1.76 0.24-1.28 0.72-1.76 1.067-0.72 1.76-0.72c0.667 0 1.227 0.24 1.68 0.72 0.48 0.48 0.72 1.067 0.72 1.76s-0.24 1.28-0.72 1.76c-0.453 0.48-1.013 0.72-1.68 0.72zm1.76 3.56v21.92h-3.64v-21.92h3.64zm17.644 21.92-5.2-8.16-5 8.16h-3.8l7.08-10.88-7.08-11.04h4.12l5.2 8.12 4.96-8.12h3.8l-7.04 10.84 7.08 11.08h-4.12zm-130.23 41.908c0.648-1.128 1.608-2.064 2.88-2.808 1.296-0.768 2.796-1.152 4.5-1.152 1.752 0 3.336 0.42 4.752 1.26 1.44 0.84 2.568 2.028 3.384 3.564 0.816 1.512 1.224 3.276 1.224 5.292 0 1.992-0.408 3.768-1.224 5.328s-1.944 2.772-3.384 3.636c-1.416 0.864-3 1.296-4.752 1.296-1.68 0-3.168-0.372-4.464-1.116-1.272-0.768-2.244-1.716-2.916-2.844v12.996h-3.276v-29.088h3.276v3.636zm13.392 6.156c0-1.488-0.3-2.784-0.9-3.888s-1.416-1.944-2.448-2.52c-1.008-0.576-2.124-0.864-3.348-0.864-1.2 0-2.316 0.3-3.348 0.9-1.008 0.576-1.824 1.428-2.448 2.556-0.6 1.104-0.9 2.388-0.9 3.852 0 1.488 0.3 2.796 0.9 3.924 0.624 1.104 1.44 1.956 2.448 2.556 1.032 0.576 2.148 0.864 3.348 0.864 1.224 0 2.34-0.288 3.348-0.864 1.032-0.6 1.848-1.452 2.448-2.556 0.6-1.128 0.9-2.448 0.9-3.96zm10.936-6.588c0.576-1.128 1.392-2.004 2.448-2.628 1.08-0.624 2.388-0.936 3.924-0.936v3.384h-0.864c-3.672 0-5.508 1.992-5.508 5.976v10.728h-3.276v-19.728h3.276v3.204zm18.758 16.848c-1.848 0-3.528-0.42-5.04-1.26-1.488-0.84-2.664-2.028-3.528-3.564-0.84-1.56-1.26-3.36-1.26-5.4 0-2.016 0.432-3.792 1.296-5.328 0.888-1.56 2.088-2.748 3.6-3.564 1.512-0.84 3.204-1.26 5.076-1.26s3.564 0.42 5.076 1.26c1.512 0.816 2.7 1.992 3.564 3.528 0.888 1.536 1.332 3.324 1.332 5.364s-0.456 3.84-1.368 5.4c-0.888 1.536-2.1 2.724-3.636 3.564s-3.24 1.26-5.112 1.26zm0-2.88c1.176 0 2.28-0.276 3.312-0.828s1.86-1.38 2.484-2.484c0.648-1.104 0.972-2.448 0.972-4.032s-0.312-2.928-0.936-4.032-1.44-1.92-2.448-2.448c-1.008-0.552-2.1-0.828-3.276-0.828-1.2 0-2.304 0.276-3.312 0.828-0.984 0.528-1.776 1.344-2.376 2.448s-0.9 2.448-0.9 4.032c0 1.608 0.288 2.964 0.864 4.068 0.6 1.104 1.392 1.932 2.376 2.484 0.984 0.528 2.064 0.792 3.24 0.792zm17.699-13.536c0.648-1.128 1.608-2.064 2.88-2.808 1.296-0.768 2.796-1.152 4.5-1.152 1.752 0 3.336 0.42 4.752 1.26 1.44 0.84 2.568 2.028 3.384 3.564 0.816 1.512 1.224 3.276 1.224 5.292 0 1.992-0.408 3.768-1.224 5.328s-1.944 2.772-3.384 3.636c-1.416 0.864-3 1.296-4.752 1.296-1.68 0-3.168-0.372-4.464-1.116-1.272-0.768-2.244-1.716-2.916-2.844v12.996h-3.276v-29.088h3.276v3.636zm13.392 6.156c0-1.488-0.3-2.784-0.9-3.888s-1.416-1.944-2.448-2.52c-1.008-0.576-2.124-0.864-3.348-0.864-1.2 0-2.316 0.3-3.348 0.9-1.008 0.576-1.824 1.428-2.448 2.556-0.6 1.104-0.9 2.388-0.9 3.852 0 1.488 0.3 2.796 0.9 3.924 0.624 1.104 1.44 1.956 2.448 2.556 1.032 0.576 2.148 0.864 3.348 0.864 1.224 0 2.34-0.288 3.348-0.864 1.032-0.6 1.848-1.452 2.448-2.556 0.6-1.128 0.9-2.448 0.9-3.96zm25.66-0.684c0 0.624-0.036 1.284-0.108 1.98h-15.768c0.12 1.944 0.78 3.468 1.98 4.572 1.224 1.08 2.7 1.62 4.428 1.62 1.416 0 2.592-0.324 3.528-0.972 0.96-0.672 1.632-1.56 2.016-2.664h3.528c-0.528 1.896-1.584 3.444-3.168 4.644-1.584 1.176-3.552 1.764-5.904 1.764-1.872 0-3.552-0.42-5.04-1.26-1.464-0.84-2.616-2.028-3.456-3.564-0.84-1.56-1.26-3.36-1.26-5.4s0.408-3.828 1.224-5.364 1.956-2.712 3.42-3.528c1.488-0.84 3.192-1.26 5.112-1.26 1.872 0 3.528 0.408 4.968 1.224s2.544 1.944 3.312 3.384c0.792 1.416 1.188 3.024 1.188 4.824zm-3.384-0.684c0-1.248-0.276-2.316-0.828-3.204-0.552-0.912-1.308-1.596-2.268-2.052-0.936-0.48-1.98-0.72-3.132-0.72-1.656 0-3.072 0.528-4.248 1.584-1.152 1.056-1.812 2.52-1.98 4.392h12.456zm10.985-5.22c0.576-1.128 1.392-2.004 2.448-2.628 1.08-0.624 2.388-0.936 3.924-0.936v3.384h-0.864c-3.672 0-5.508 1.992-5.508 5.976v10.728h-3.276v-19.728h3.276v3.204zm14.149-0.504v11.628c0 0.96 0.204 1.644 0.612 2.052 0.408 0.384 1.116 0.576 2.124 0.576h2.412v2.772h-2.952c-1.824 0-3.192-0.42-4.104-1.26s-1.368-2.22-1.368-4.14v-11.628h-2.556v-2.7h2.556v-4.968h3.276v4.968h5.148v2.7h-5.148zm26.109-2.7-11.88 29.016h-3.384l3.888-9.504-7.956-19.512h3.636l6.192 15.984 6.12-15.984h3.384zm-149.21 60.808h-3.672l3.456-8.172h2.34l-2.124 8.172zm5.832 0h-3.672l3.456-8.172h2.34l-2.124 8.172zm14.108-0.108h-4.14v17.028h-3.276v-17.028h-2.556v-2.7h2.556v-1.404c0-2.208 0.564-3.816 1.692-4.824 1.152-1.032 2.988-1.548 5.508-1.548v2.736c-1.44 0-2.46 0.288-3.06 0.864-0.576 0.552-0.864 1.476-0.864 2.772v1.404h4.14v2.7zm11.955-3.024c1.704 0 3.192 0.372 4.464 1.116 1.296 0.744 2.256 1.68 2.88 2.808v-3.6h3.312v20.16c0 1.8-0.384 3.396-1.152 4.788-0.768 1.416-1.872 2.52-3.312 3.312-1.416 0.792-3.072 1.188-4.968 1.188-2.592 0-4.752-0.612-6.48-1.836s-2.748-2.892-3.06-5.004h3.24c0.36 1.2 1.104 2.16 2.232 2.88 1.128 0.744 2.484 1.116 4.068 1.116 1.8 0 3.264-0.564 4.392-1.692 1.152-1.128 1.728-2.712 1.728-4.752v-4.14c-0.648 1.152-1.608 2.112-2.88 2.88s-2.76 1.152-4.464 1.152c-1.752 0-3.348-0.432-4.788-1.296-1.416-0.864-2.532-2.076-3.348-3.636s-1.224-3.336-1.224-5.328c0-2.016 0.408-3.78 1.224-5.292 0.816-1.536 1.932-2.724 3.348-3.564 1.44-0.84 3.036-1.26 4.788-1.26zm7.344 10.152c0-1.488-0.3-2.784-0.9-3.888s-1.416-1.944-2.448-2.52c-1.008-0.6-2.124-0.9-3.348-0.9s-2.34 0.288-3.348 0.864-1.812 1.416-2.412 2.52-0.9 2.4-0.9 3.888c0 1.512 0.3 2.832 0.9 3.96 0.6 1.104 1.404 1.956 2.412 2.556 1.008 0.576 2.124 0.864 3.348 0.864s2.34-0.288 3.348-0.864c1.032-0.6 1.848-1.452 2.448-2.556 0.6-1.128 0.9-2.436 0.9-3.924zm9.353-15.192h3.636l-3.456 8.172h-2.304l2.124-8.172zm5.832 0h3.636l-3.456 8.172h-2.34l2.16-8.172zm25.541 25.416c-1.848 0-3.528-0.42-5.04-1.26-1.488-0.84-2.664-2.028-3.528-3.564-0.84-1.56-1.26-3.36-1.26-5.4 0-2.016 0.432-3.792 1.296-5.328 0.888-1.56 2.088-2.748 3.6-3.564 1.512-0.84 3.204-1.26 5.076-1.26s3.564 0.42 5.076 1.26c1.512 0.816 2.7 1.992 3.564 3.528 0.888 1.536 1.332 3.324 1.332 5.364s-0.456 3.84-1.368 5.4c-0.888 1.536-2.1 2.724-3.636 3.564s-3.24 1.26-5.112 1.26zm0-2.88c1.176 0 2.28-0.276 3.312-0.828s1.86-1.38 2.484-2.484c0.648-1.104 0.972-2.448 0.972-4.032s-0.312-2.928-0.936-4.032-1.44-1.92-2.448-2.448c-1.008-0.552-2.1-0.828-3.276-0.828-1.2 0-2.304 0.276-3.312 0.828-0.984 0.528-1.776 1.344-2.376 2.448s-0.9 2.448-0.9 4.032c0 1.608 0.288 2.964 0.864 4.068 0.6 1.104 1.392 1.932 2.376 2.484 0.984 0.528 2.064 0.792 3.24 0.792zm17.699-13.968c0.576-1.128 1.392-2.004 2.448-2.628 1.08-0.624 2.388-0.936 3.924-0.936v3.384h-0.864c-3.672 0-5.508 1.992-5.508 5.976v10.728h-3.276v-19.728h3.276v3.204zm21.516-0.396h-3.672l3.456-8.172h2.34l-2.124 8.172zm5.832 0h-3.672l3.456-8.172h2.34l-2.124 8.172zm9.355 0.864c0.672-1.176 1.656-2.136 2.952-2.88s2.772-1.116 4.428-1.116c1.776 0 3.372 0.42 4.788 1.26s2.532 2.028 3.348 3.564c0.816 1.512 1.224 3.276 1.224 5.292 0 1.992-0.408 3.768-1.224 5.328s-1.944 2.772-3.384 3.636c-1.416 0.864-3 1.296-4.752 1.296-1.704 0-3.204-0.372-4.5-1.116-1.272-0.744-2.232-1.692-2.88-2.844v3.636h-3.276v-26.64h3.276v10.584zm13.392 6.12c0-1.488-0.3-2.784-0.9-3.888s-1.416-1.944-2.448-2.52c-1.008-0.576-2.124-0.864-3.348-0.864-1.2 0-2.316 0.3-3.348 0.9-1.008 0.576-1.824 1.428-2.448 2.556-0.6 1.104-0.9 2.388-0.9 3.852 0 1.488 0.3 2.796 0.9 3.924 0.624 1.104 1.44 1.956 2.448 2.556 1.032 0.576 2.148 0.864 3.348 0.864 1.224 0 2.34-0.288 3.348-0.864 1.032-0.6 1.848-1.452 2.448-2.556 0.6-1.128 0.9-2.448 0.9-3.96zm15.797-10.116c1.704 0 3.192 0.372 4.464 1.116 1.296 0.744 2.256 1.68 2.88 2.808v-3.6h3.312v20.16c0 1.8-0.384 3.396-1.152 4.788-0.768 1.416-1.872 2.52-3.312 3.312-1.416 0.792-3.072 1.188-4.968 1.188-2.592 0-4.752-0.612-6.48-1.836s-2.748-2.892-3.06-5.004h3.24c0.36 1.2 1.104 2.16 2.232 2.88 1.128 0.744 2.484 1.116 4.068 1.116 1.8 0 3.264-0.564 4.392-1.692 1.152-1.128 1.728-2.712 1.728-4.752v-4.14c-0.648 1.152-1.608 2.112-2.88 2.88s-2.76 1.152-4.464 1.152c-1.752 0-3.348-0.432-4.788-1.296-1.416-0.864-2.532-2.076-3.348-3.636s-1.224-3.336-1.224-5.328c0-2.016 0.408-3.78 1.224-5.292 0.816-1.536 1.932-2.724 3.348-3.564 1.44-0.84 3.036-1.26 4.788-1.26zm7.344 10.152c0-1.488-0.3-2.784-0.9-3.888s-1.416-1.944-2.448-2.52c-1.008-0.6-2.124-0.9-3.348-0.9s-2.34 0.288-3.348 0.864-1.812 1.416-2.412 2.52-0.9 2.4-0.9 3.888c0 1.512 0.3 2.832 0.9 3.96 0.6 1.104 1.404 1.956 2.412 2.556 1.008 0.576 2.124 0.864 3.348 0.864s2.34-0.288 3.348-0.864c1.032-0.6 1.848-1.452 2.448-2.556 0.6-1.128 0.9-2.436 0.9-3.924zm9.352-15.192h3.636l-3.456 8.172h-2.304l2.124-8.172zm5.832 0h3.636l-3.456 8.172h-2.34l2.16-8.172z" fill="#ddd"/>
<path d="m996.83 524.36c-1.68 0-3.186-0.28-4.52-0.84-1.333-0.587-2.386-1.387-3.16-2.4-0.773-1.04-1.2-2.227-1.28-3.56h3.76c0.107 1.093 0.614 1.987 1.52 2.68 0.934 0.693 2.147 1.04 3.64 1.04 1.387 0 2.48-0.307 3.278-0.92 0.8-0.613 1.2-1.387 1.2-2.32 0-0.96-0.42-1.667-1.278-2.12-0.853-0.48-2.173-0.947-3.96-1.4-1.626-0.427-2.96-0.853-4-1.28-1.013-0.453-1.893-1.107-2.64-1.96-0.72-0.88-1.08-2.027-1.08-3.44 0-1.12 0.334-2.147 1-3.08 0.667-0.933 1.614-1.667 2.84-2.2 1.227-0.56 2.627-0.84 4.2-0.84 2.427 0 4.388 0.613 5.878 1.84 1.5 1.227 2.3 2.907 2.4 5.04h-3.64c-0.08-1.147-0.54-2.067-1.398-2.76-0.826-0.693-1.946-1.04-3.36-1.04-1.306 0-2.346 0.28-3.12 0.84-0.773 0.56-1.16 1.293-1.16 2.2 0 0.72 0.227 1.32 0.68 1.8 0.48 0.453 1.067 0.827 1.76 1.12 0.72 0.267 1.707 0.573 2.96 0.92 1.574 0.427 2.858 0.853 3.838 1.28 0.99 0.4 1.83 1.013 2.52 1.84 0.72 0.827 1.1 1.907 1.12 3.24 0 1.2-0.33 2.28-1 3.24-0.66 0.96-1.61 1.72-2.84 2.28-1.198 0.533-2.584 0.8-4.158 0.8zm32.578-22.28v21.92h-3.64v-3.24c-0.69 1.12-1.67 2-2.92 2.64-1.23 0.613-2.59 0.92-4.08 0.92-1.71 0-3.24-0.347-4.6-1.04-1.36-0.72-2.44-1.787-3.24-3.2-0.77-1.413-1.16-3.133-1.16-5.16v-12.84h3.6v12.36c0 2.16 0.55 3.827 1.64 5 1.09 1.147 2.59 1.72 4.48 1.72 1.95 0 3.48-0.6 4.6-1.8s1.68-2.947 1.68-5.24v-12.04h3.64zm15.07 3h-4.6v18.92h-3.64v-18.92h-2.84v-3h2.84v-1.56c0-2.453 0.62-4.24 1.88-5.36 1.28-1.147 3.32-1.72 6.12-1.72v3.04c-1.6 0-2.74 0.32-3.4 0.96-0.64 0.613-0.96 1.64-0.96 3.08v1.56h4.6v3zm13.16 0h-4.6v18.92h-3.64v-18.92h-2.84v-3h2.84v-1.56c0-2.453 0.63-4.24 1.88-5.36 1.28-1.147 3.32-1.72 6.12-1.72v3.04c-1.6 0-2.73 0.32-3.4 0.96-0.64 0.613-0.96 1.64-0.96 3.08v1.56h4.6v3zm6.12-6.56c-0.69 0-1.28-0.24-1.76-0.72s-0.72-1.067-0.72-1.76 0.24-1.28 0.72-1.76 1.07-0.72 1.76-0.72c0.67 0 1.23 0.24 1.68 0.72 0.48 0.48 0.72 1.067 0.72 1.76s-0.24 1.28-0.72 1.76c-0.45 0.48-1.01 0.72-1.68 0.72zm1.76 3.56v21.92h-3.64v-21.92h3.64zm17.65 21.92-5.2-8.16-5 8.16h-3.8l7.08-10.88-7.08-11.04h4.12l5.2 8.12 4.96-8.12h3.8l-7.04 10.84 7.08 11.08h-4.12z" fill="#fff"/>
<path d="m965.38 582.32c-1.848 0-3.528-0.42-5.04-1.26-1.488-0.84-2.664-2.028-3.528-3.564-0.84-1.56-1.26-3.36-1.26-5.4 0-2.016 0.432-3.792 1.296-5.328 0.888-1.56 2.088-2.748 3.6-3.564 1.512-0.84 3.204-1.26 5.076-1.26s3.564 0.42 5.076 1.26c1.512 0.816 2.7 1.992 3.564 3.528 0.888 1.536 1.332 3.324 1.332 5.364s-0.456 3.84-1.368 5.4c-0.888 1.536-2.1 2.724-3.636 3.564s-3.24 1.26-5.112 1.26zm0-2.88c1.176 0 2.28-0.276 3.312-0.828s1.86-1.38 2.484-2.484c0.648-1.104 0.972-2.448 0.972-4.032s-0.312-2.928-0.936-4.032-1.44-1.92-2.448-2.448c-1.008-0.552-2.1-0.828-3.276-0.828-1.2 0-2.304 0.276-3.312 0.828-0.984 0.528-1.776 1.344-2.376 2.448s-0.9 2.448-0.9 4.032c0 1.608 0.288 2.964 0.864 4.068 0.6 1.104 1.392 1.932 2.376 2.484 0.984 0.528 2.064 0.792 3.24 0.792zm24.035-17.532c2.4 0 4.344 0.732 5.832 2.196 1.488 1.44 2.232 3.528 2.232 6.264v11.628h-3.24v-11.16c0-1.968-0.492-3.468-1.476-4.5-0.984-1.056-2.328-1.584-4.032-1.584-1.728 0-3.108 0.54-4.14 1.62-1.008 1.08-1.512 2.652-1.512 4.716v10.908h-3.276v-19.728h3.276v2.808c0.648-1.008 1.524-1.788 2.628-2.34 1.128-0.552 2.364-0.828 3.708-0.828zm31.419 9.468c0 0.624-0.04 1.284-0.11 1.98h-15.77c0.12 1.944 0.78 3.468 1.98 4.572 1.22 1.08 2.7 1.62 4.43 1.62 1.41 0 2.59-0.324 3.53-0.972 0.96-0.672 1.63-1.56 2.01-2.664h3.53c-0.53 1.896-1.58 3.444-3.17 4.644-1.58 1.176-3.55 1.764-5.9 1.764-1.87 0-3.55-0.42-5.04-1.26-1.47-0.84-2.62-2.028-3.46-3.564-0.84-1.56-1.26-3.36-1.26-5.4s0.41-3.828 1.23-5.364c0.81-1.536 1.95-2.712 3.42-3.528 1.48-0.84 3.19-1.26 5.11-1.26 1.87 0 3.53 0.408 4.97 1.224s2.54 1.944 3.31 3.384c0.79 1.416 1.19 3.024 1.19 4.824zm-3.39-0.684c0-1.248-0.27-2.316-0.83-3.204-0.55-0.912-1.3-1.596-2.26-2.052-0.94-0.48-1.98-0.72-3.14-0.72-1.65 0-3.07 0.528-4.24 1.584-1.16 1.056-1.82 2.52-1.98 4.392h12.45zm25.91 11.628c-1.85 0-3.53-0.42-5.04-1.26-1.49-0.84-2.66-2.028-3.53-3.564-0.84-1.56-1.26-3.36-1.26-5.4 0-2.016 0.44-3.792 1.3-5.328 0.89-1.56 2.09-2.748 3.6-3.564 1.51-0.84 3.2-1.26 5.08-1.26 1.87 0 3.56 0.42 5.07 1.26 1.51 0.816 2.7 1.992 3.57 3.528 0.88 1.536 1.33 3.324 1.33 5.364s-0.46 3.84-1.37 5.4c-0.89 1.536-2.1 2.724-3.64 3.564-1.53 0.84-3.24 1.26-5.11 1.26zm0-2.88c1.18 0 2.28-0.276 3.31-0.828 1.04-0.552 1.86-1.38 2.49-2.484 0.65-1.104 0.97-2.448 0.97-4.032s-0.31-2.928-0.94-4.032c-0.62-1.104-1.44-1.92-2.44-2.448-1.01-0.552-2.1-0.828-3.28-0.828-1.2 0-2.3 0.276-3.31 0.828-0.99 0.528-1.78 1.344-2.38 2.448s-0.9 2.448-0.9 4.032c0 1.608 0.29 2.964 0.87 4.068 0.6 1.104 1.39 1.932 2.37 2.484 0.99 0.528 2.07 0.792 3.24 0.792zm22.45-14.472h-4.14v17.028h-3.27v-17.028h-2.56v-2.7h2.56v-1.404c0-2.208 0.56-3.816 1.69-4.824 1.15-1.032 2.99-1.548 5.51-1.548v2.736c-1.44 0-2.46 0.288-3.06 0.864-0.58 0.552-0.87 1.476-0.87 2.772v1.404h4.14v2.7zm29.48-6.156h-12.64v8.208c0.55-0.768 1.37-1.392 2.45-1.872 1.08-0.504 2.24-0.756 3.49-0.756 1.99 0 3.61 0.42 4.86 1.26 1.25 0.816 2.14 1.884 2.67 3.204 0.55 1.296 0.82 2.676 0.82 4.14 0 1.728-0.32 3.276-0.97 4.644s-1.64 2.448-2.99 3.24c-1.32 0.792-2.96 1.188-4.93 1.188-2.52 0-4.56-0.648-6.12-1.944s-2.51-3.024-2.84-5.184h3.2c0.31 1.368 0.97 2.436 1.98 3.204s2.28 1.152 3.82 1.152c1.89 0 3.32-0.564 4.28-1.692 0.96-1.152 1.44-2.664 1.44-4.536s-0.48-3.312-1.44-4.32c-0.96-1.032-2.37-1.548-4.25-1.548-1.27 0-2.38 0.312-3.34 0.936-0.94 0.6-1.62 1.428-2.06 2.484h-3.09v-14.688h15.66v2.88zm14.92 13.284c0-2.04 0.41-3.816 1.22-5.328 0.82-1.536 1.95-2.724 3.39-3.564 1.46-0.84 3.13-1.26 5-1.26 2.43 0 4.42 0.588 5.98 1.764 1.58 1.176 2.63 2.808 3.13 4.896h-3.53c-0.33-1.2-0.99-2.148-1.98-2.844-0.96-0.696-2.16-1.044-3.6-1.044-1.87 0-3.38 0.648-4.53 1.944-1.16 1.272-1.73 3.084-1.73 5.436 0 2.376 0.57 4.212 1.73 5.508 1.15 1.296 2.66 1.944 4.53 1.944 1.44 0 2.64-0.336 3.6-1.008s1.62-1.632 1.98-2.88h3.53c-0.53 2.016-1.58 3.636-3.17 4.86-1.58 1.2-3.56 1.8-5.94 1.8-1.87 0-3.54-0.42-5-1.26-1.44-0.84-2.57-2.028-3.39-3.564-0.81-1.536-1.22-3.336-1.22-5.4zm31.7 10.224c-1.85 0-3.53-0.42-5.04-1.26-1.49-0.84-2.67-2.028-3.53-3.564-0.84-1.56-1.26-3.36-1.26-5.4 0-2.016 0.43-3.792 1.29-5.328 0.89-1.56 2.09-2.748 3.6-3.564 1.52-0.84 3.21-1.26 5.08-1.26s3.56 0.42 5.08 1.26c1.51 0.816 2.7 1.992 3.56 3.528 0.89 1.536 1.33 3.324 1.33 5.364s-0.45 3.84-1.37 5.4c-0.88 1.536-2.1 2.724-3.63 3.564-1.54 0.84-3.24 1.26-5.11 1.26zm0-2.88c1.17 0 2.28-0.276 3.31-0.828s1.86-1.38 2.48-2.484c0.65-1.104 0.97-2.448 0.97-4.032s-0.31-2.928-0.93-4.032c-0.63-1.104-1.44-1.92-2.45-2.448-1.01-0.552-2.1-0.828-3.28-0.828-1.2 0-2.3 0.276-3.31 0.828-0.98 0.528-1.77 1.344-2.37 2.448s-0.9 2.448-0.9 4.032c0 1.608 0.28 2.964 0.86 4.068 0.6 1.104 1.39 1.932 2.38 2.484 0.98 0.528 2.06 0.792 3.24 0.792zm17.69-24.084v26.64h-3.27v-26.64h3.27zm14.19 26.964c-1.85 0-3.53-0.42-5.04-1.26-1.49-0.84-2.66-2.028-3.53-3.564-0.84-1.56-1.26-3.36-1.26-5.4 0-2.016 0.44-3.792 1.3-5.328 0.89-1.56 2.09-2.748 3.6-3.564 1.51-0.84 3.2-1.26 5.08-1.26 1.87 0 3.56 0.42 5.07 1.26 1.51 0.816 2.7 1.992 3.57 3.528 0.88 1.536 1.33 3.324 1.33 5.364s-0.46 3.84-1.37 5.4c-0.89 1.536-2.1 2.724-3.64 3.564-1.53 0.84-3.24 1.26-5.11 1.26zm0-2.88c1.18 0 2.28-0.276 3.31-0.828 1.04-0.552 1.86-1.38 2.49-2.484 0.65-1.104 0.97-2.448 0.97-4.032s-0.31-2.928-0.94-4.032c-0.62-1.104-1.44-1.92-2.44-2.448-1.01-0.552-2.1-0.828-3.28-0.828-1.2 0-2.3 0.276-3.31 0.828-0.99 0.528-1.78 1.344-2.38 2.448s-0.9 2.448-0.9 4.032c0 1.608 0.29 2.964 0.87 4.068 0.6 1.104 1.39 1.932 2.37 2.484 0.99 0.528 2.07 0.792 3.24 0.792zm17.7-13.968c0.58-1.128 1.39-2.004 2.45-2.628 1.08-0.624 2.39-0.936 3.92-0.936v3.384h-0.86c-3.67 0-5.51 1.992-5.51 5.976v10.728h-3.27v-19.728h3.27v3.204zm23.75-0.504v11.628c0 0.96 0.2 1.644 0.61 2.052 0.41 0.384 1.12 0.576 2.12 0.576h2.42v2.772h-2.96c-1.82 0-3.19-0.42-4.1-1.26s-1.37-2.22-1.37-4.14v-11.628h-2.55v-2.7h2.55v-4.968h3.28v4.968h5.15v2.7h-5.15zm26.11-2.7-11.88 29.016h-3.39l3.89-9.504-7.95-19.512h3.63l6.19 15.984 6.12-15.984h3.39zm6.57 3.636c0.65-1.128 1.61-2.064 2.88-2.808 1.29-0.768 2.79-1.152 4.5-1.152 1.75 0 3.33 0.42 4.75 1.26 1.44 0.84 2.57 2.028 3.38 3.564 0.82 1.512 1.23 3.276 1.23 5.292 0 1.992-0.41 3.768-1.23 5.328-0.81 1.56-1.94 2.772-3.38 3.636-1.42 0.864-3 1.296-4.75 1.296-1.68 0-3.17-0.372-4.47-1.116-1.27-0.768-2.24-1.716-2.91-2.844v12.996h-3.28v-29.088h3.28v3.636zm13.39 6.156c0-1.488-0.3-2.784-0.9-3.888s-1.42-1.944-2.45-2.52c-1.01-0.576-2.12-0.864-3.35-0.864-1.2 0-2.31 0.3-3.34 0.9-1.01 0.576-1.83 1.428-2.45 2.556-0.6 1.104-0.9 2.388-0.9 3.852 0 1.488 0.3 2.796 0.9 3.924 0.62 1.104 1.44 1.956 2.45 2.556 1.03 0.576 2.14 0.864 3.34 0.864 1.23 0 2.34-0.288 3.35-0.864 1.03-0.6 1.85-1.452 2.45-2.556 0.6-1.128 0.9-2.448 0.9-3.96zm25.66-0.684c0 0.624-0.04 1.284-0.11 1.98h-15.77c0.12 1.944 0.78 3.468 1.98 4.572 1.23 1.08 2.7 1.62 4.43 1.62 1.42 0 2.59-0.324 3.53-0.972 0.96-0.672 1.63-1.56 2.02-2.664h3.52c-0.52 1.896-1.58 3.444-3.16 4.644-1.59 1.176-3.56 1.764-5.91 1.764-1.87 0-3.55-0.42-5.04-1.26-1.46-0.84-2.61-2.028-3.45-3.564-0.84-1.56-1.26-3.36-1.26-5.4s0.4-3.828 1.22-5.364 1.96-2.712 3.42-3.528c1.49-0.84 3.19-1.26 5.11-1.26 1.87 0 3.53 0.408 4.97 1.224s2.54 1.944 3.31 3.384c0.79 1.416 1.19 3.024 1.19 4.824zm-3.38-0.684c0-1.248-0.28-2.316-0.83-3.204-0.55-0.912-1.31-1.596-2.27-2.052-0.94-0.48-1.98-0.72-3.13-0.72-1.66 0-3.07 0.528-4.25 1.584-1.15 1.056-1.81 2.52-1.98 4.392h12.46zm14.69 11.628c-1.51 0-2.87-0.252-4.07-0.756-1.2-0.528-2.15-1.248-2.84-2.16-0.7-0.936-1.08-2.004-1.16-3.204h3.39c0.09 0.984 0.55 1.788 1.37 2.412 0.84 0.624 1.93 0.936 3.27 0.936 1.25 0 2.23-0.276 2.95-0.828s1.08-1.248 1.08-2.088c0-0.864-0.38-1.5-1.15-1.908-0.77-0.432-1.95-0.852-3.56-1.26-1.47-0.384-2.67-0.768-3.6-1.152-0.91-0.408-1.71-0.996-2.38-1.764-0.65-0.792-0.97-1.824-0.97-3.096 0-1.008 0.3-1.932 0.9-2.772s1.45-1.5 2.56-1.98c1.1-0.504 2.36-0.756 3.78-0.756 2.18 0 3.94 0.552 5.29 1.656 1.34 1.104 2.06 2.616 2.16 4.536h-3.28c-0.07-1.032-0.49-1.86-1.26-2.484-0.74-0.624-1.75-0.936-3.02-0.936-1.18 0-2.11 0.252-2.81 0.756s-1.04 1.164-1.04 1.98c0 0.648 0.2 1.188 0.61 1.62 0.43 0.408 0.96 0.744 1.58 1.008 0.65 0.24 1.54 0.516 2.67 0.828 1.41 0.384 2.56 0.768 3.45 1.152 0.89 0.36 1.65 0.912 2.27 1.656 0.65 0.744 0.98 1.716 1.01 2.916 0 1.08-0.3 2.052-0.9 2.916s-1.45 1.548-2.56 2.052c-1.08 0.48-2.33 0.72-3.74 0.72zm-339.73 40.756h-3.672l3.456-8.172h2.34l-2.124 8.172zm5.832 0h-3.672l3.456-8.172h2.34l-2.124 8.172zm10.076-0.108v11.628c0 0.96 0.204 1.644 0.612 2.052 0.408 0.384 1.116 0.576 2.124 0.576h2.412v2.772h-2.952c-1.824 0-3.192-0.42-4.104-1.26s-1.368-2.22-1.368-4.14v-11.628h-2.556v-2.7h2.556v-4.968h3.276v4.968h5.148v2.7h-5.148zm27.116 6.408c0 0.624-0.03 1.284-0.11 1.98h-15.765c0.12 1.944 0.78 3.468 1.98 4.572 1.224 1.08 2.7 1.62 4.428 1.62 1.416 0 2.592-0.324 3.528-0.972 0.96-0.672 1.632-1.56 2.016-2.664h3.533c-0.53 1.896-1.589 3.444-3.173 4.644-1.584 1.176-3.552 1.764-5.904 1.764-1.872 0-3.552-0.42-5.04-1.26-1.464-0.84-2.616-2.028-3.456-3.564-0.84-1.56-1.26-3.36-1.26-5.4s0.408-3.828 1.224-5.364 1.956-2.712 3.42-3.528c1.488-0.84 3.192-1.26 5.112-1.26 1.872 0 3.528 0.408 4.968 1.224s2.544 1.944 3.309 3.384c0.8 1.416 1.19 3.024 1.19 4.824zm-3.383-0.684c0-1.248-0.276-2.316-0.828-3.204-0.552-0.912-1.308-1.596-2.268-2.052-0.936-0.48-1.98-0.72-3.132-0.72-1.656 0-3.072 0.528-4.248 1.584-1.152 1.056-1.812 2.52-1.98 4.392h12.456zm18.003 11.304-4.68-7.344-4.5 7.344h-3.42l6.37-9.792-6.37-9.936h3.71l4.68 7.308 4.46-7.308h3.42l-6.33 9.756 6.37 9.972h-3.71zm10.93-17.028v11.628c0 0.96 0.2 1.644 0.61 2.052 0.41 0.384 1.12 0.576 2.12 0.576h2.42v2.772h-2.96c-1.82 0-3.19-0.42-4.1-1.26s-1.37-2.22-1.37-4.14v-11.628h-2.55v-2.7h2.55v-4.968h3.28v4.968h5.15v2.7h-5.15zm9.62-8.064h3.64l-3.46 8.172h-2.3l2.12-8.172zm5.83 0h3.64l-3.46 8.172h-2.34l2.16-8.172zm10.72 20.556-4.03 9.684h-2.19l2.62-9.684h3.6zm-94.744 45.616h-3.672l3.456-8.172h2.34l-2.124 8.172zm5.832 0h-3.672l3.456-8.172h2.34l-2.124 8.172zm9.356 0.864c0.672-1.176 1.656-2.136 2.952-2.88s2.772-1.116 4.428-1.116c1.776 0 3.372 0.42 4.788 1.26s2.532 2.028 3.348 3.564c0.816 1.512 1.224 3.276 1.224 5.292 0 1.992-0.408 3.768-1.224 5.328s-1.944 2.772-3.384 3.636c-1.416 0.864-3 1.296-4.752 1.296-1.704 0-3.204-0.372-4.5-1.116-1.272-0.744-2.232-1.692-2.88-2.844v3.636h-3.276v-26.64h3.276v10.584zm13.392 6.12c0-1.488-0.3-2.784-0.9-3.888s-1.416-1.944-2.448-2.52c-1.008-0.576-2.124-0.864-3.348-0.864-1.2 0-2.316 0.3-3.348 0.9-1.008 0.576-1.824 1.428-2.448 2.556-0.6 1.104-0.9 2.388-0.9 3.852 0 1.488 0.3 2.796 0.9 3.924 0.624 1.104 1.44 1.956 2.448 2.556 1.032 0.576 2.148 0.864 3.348 0.864 1.224 0 2.34-0.288 3.348-0.864 1.032-0.6 1.848-1.452 2.448-2.556 0.6-1.128 0.9-2.448 0.9-3.96zm6.436 0c0-2.016 0.408-3.78 1.224-5.292 0.816-1.536 1.932-2.724 3.348-3.564 1.44-0.84 3.036-1.26 4.786-1.26 1.73 0 3.23 0.372 4.5 1.116s2.22 1.68 2.85 2.808v-3.6h3.31v19.728h-3.31v-3.672c-0.65 1.152-1.62 2.112-2.92 2.88-1.27 0.744-2.76 1.116-4.46 1.116-1.76 0-3.34-0.432-4.756-1.296s-2.532-2.076-3.348-3.636-1.224-3.336-1.224-5.328zm16.708 0.036c0-1.488-0.3-2.784-0.9-3.888s-1.42-1.944-2.45-2.52c-1.01-0.6-2.13-0.9-3.35-0.9s-2.34 0.288-3.35 0.864c-1.006 0.576-1.81 1.416-2.41 2.52s-0.9 2.4-0.9 3.888c0 1.512 0.3 2.832 0.9 3.96 0.6 1.104 1.404 1.956 2.41 2.556 1.01 0.576 2.13 0.864 3.35 0.864s2.34-0.288 3.35-0.864c1.03-0.6 1.85-1.452 2.45-2.556 0.6-1.128 0.9-2.436 0.9-3.924zm7.62 0c0-2.04 0.41-3.816 1.22-5.328 0.82-1.536 1.95-2.724 3.39-3.564 1.46-0.84 3.13-1.26 5-1.26 2.43 0 4.42 0.588 5.98 1.764 1.58 1.176 2.63 2.808 3.13 4.896h-3.53c-0.33-1.2-0.99-2.148-1.98-2.844-0.96-0.696-2.16-1.044-3.6-1.044-1.87 0-3.38 0.648-4.53 1.944-1.16 1.272-1.73 3.084-1.73 5.436 0 2.376 0.57 4.212 1.73 5.508 1.15 1.296 2.66 1.944 4.53 1.944 1.44 0 2.64-0.336 3.6-1.008s1.62-1.632 1.98-2.88h3.53c-0.53 2.016-1.58 3.636-3.17 4.86-1.58 1.2-3.56 1.8-5.94 1.8-1.87 0-3.54-0.42-5-1.26-1.44-0.84-2.57-2.028-3.39-3.564-0.81-1.536-1.22-3.336-1.22-5.4zm34.11 9.9-7.74-8.712v8.712h-3.28v-26.64h3.28v15.66l7.59-8.748h4.58l-9.29 9.828 9.32 9.9h-4.46zm15.64-20.052c1.71 0 3.2 0.372 4.47 1.116 1.29 0.744 2.25 1.68 2.88 2.808v-3.6h3.31v20.16c0 1.8-0.38 3.396-1.15 4.788-0.77 1.416-1.87 2.52-3.31 3.312-1.42 0.792-3.08 1.188-4.97 1.188-2.59 0-4.75-0.612-6.48-1.836s-2.75-2.892-3.06-5.004h3.24c0.36 1.2 1.1 2.16 2.23 2.88 1.13 0.744 2.48 1.116 4.07 1.116 1.8 0 3.26-0.564 4.39-1.692 1.15-1.128 1.73-2.712 1.73-4.752v-4.14c-0.65 1.152-1.61 2.112-2.88 2.88s-2.76 1.152-4.47 1.152c-1.75 0-3.34-0.432-4.78-1.296-1.42-0.864-2.54-2.076-3.35-3.636-0.82-1.56-1.23-3.336-1.23-5.328 0-2.016 0.41-3.78 1.23-5.292 0.81-1.536 1.93-2.724 3.35-3.564 1.44-0.84 3.03-1.26 4.78-1.26zm7.35 10.152c0-1.488-0.3-2.784-0.9-3.888s-1.42-1.944-2.45-2.52c-1.01-0.6-2.12-0.9-3.35-0.9-1.22 0-2.34 0.288-3.35 0.864-1 0.576-1.81 1.416-2.41 2.52s-0.9 2.4-0.9 3.888c0 1.512 0.3 2.832 0.9 3.96 0.6 1.104 1.41 1.956 2.41 2.556 1.01 0.576 2.13 0.864 3.35 0.864 1.23 0 2.34-0.288 3.35-0.864 1.03-0.6 1.85-1.452 2.45-2.556 0.6-1.128 0.9-2.436 0.9-3.924zm12.12-6.624c0.58-1.128 1.39-2.004 2.45-2.628 1.08-0.624 2.39-0.936 3.92-0.936v3.384h-0.86c-3.67 0-5.51 1.992-5.51 5.976v10.728h-3.27v-19.728h3.27v3.204zm18.76 16.848c-1.85 0-3.53-0.42-5.04-1.26-1.49-0.84-2.66-2.028-3.53-3.564-0.84-1.56-1.26-3.36-1.26-5.4 0-2.016 0.43-3.792 1.3-5.328 0.89-1.56 2.09-2.748 3.6-3.564 1.51-0.84 3.2-1.26 5.07-1.26 1.88 0 3.57 0.42 5.08 1.26 1.51 0.816 2.7 1.992 3.56 3.528 0.89 1.536 1.34 3.324 1.34 5.364s-0.46 3.84-1.37 5.4c-0.89 1.536-2.1 2.724-3.64 3.564-1.53 0.84-3.24 1.26-5.11 1.26zm0-2.88c1.18 0 2.28-0.276 3.31-0.828s1.86-1.38 2.49-2.484c0.64-1.104 0.97-2.448 0.97-4.032s-0.31-2.928-0.94-4.032c-0.62-1.104-1.44-1.92-2.45-2.448-1-0.552-2.1-0.828-3.27-0.828-1.2 0-2.31 0.276-3.31 0.828-0.99 0.528-1.78 1.344-2.38 2.448s-0.9 2.448-0.9 4.032c0 1.608 0.29 2.964 0.86 4.068 0.6 1.104 1.4 1.932 2.38 2.484 0.98 0.528 2.06 0.792 3.24 0.792zm31.92-17.172v19.728h-3.28v-2.916c-0.62 1.008-1.5 1.8-2.62 2.376-1.11 0.552-2.33 0.828-3.68 0.828-1.53 0-2.91-0.312-4.14-0.936-1.22-0.648-2.19-1.608-2.91-2.88-0.7-1.272-1.05-2.82-1.05-4.644v-11.556h3.24v11.124c0 1.944 0.5 3.444 1.48 4.5 0.98 1.032 2.33 1.548 4.03 1.548 1.75 0 3.13-0.54 4.14-1.62s1.51-2.652 1.51-4.716v-10.836h3.28zm15.14-0.36c2.4 0 4.35 0.732 5.84 2.196 1.48 1.44 2.23 3.528 2.23 6.264v11.628h-3.24v-11.16c0-1.968-0.49-3.468-1.48-4.5-0.98-1.056-2.33-1.584-4.03-1.584-1.73 0-3.11 0.54-4.14 1.62-1.01 1.08-1.51 2.652-1.51 4.716v10.908h-3.28v-19.728h3.28v2.808c0.65-1.008 1.52-1.788 2.63-2.34 1.12-0.552 2.36-0.828 3.7-0.828zm12.19 10.152c0-2.016 0.41-3.78 1.23-5.292 0.81-1.536 1.93-2.724 3.35-3.564 1.44-0.84 3.04-1.26 4.82-1.26 1.54 0 2.96 0.36 4.28 1.08 1.32 0.696 2.33 1.62 3.03 2.772v-10.44h3.31v26.64h-3.31v-3.708c-0.65 1.176-1.61 2.148-2.88 2.916-1.27 0.744-2.76 1.116-4.47 1.116-1.75 0-3.34-0.432-4.78-1.296-1.42-0.864-2.54-2.076-3.35-3.636-0.82-1.56-1.23-3.336-1.23-5.328zm16.71 0.036c0-1.488-0.3-2.784-0.9-3.888s-1.42-1.944-2.45-2.52c-1.01-0.6-2.12-0.9-3.35-0.9-1.22 0-2.34 0.288-3.35 0.864-1 0.576-1.81 1.416-2.41 2.52s-0.9 2.4-0.9 3.888c0 1.512 0.3 2.832 0.9 3.96 0.6 1.104 1.41 1.956 2.41 2.556 1.01 0.576 2.13 0.864 3.35 0.864 1.23 0 2.34-0.288 3.35-0.864 1.03-0.6 1.85-1.452 2.45-2.556 0.6-1.128 0.9-2.436 0.9-3.924zm9.35-15.192h3.64l-3.46 8.172h-2.3l2.12-8.172zm5.83 0h3.64l-3.46 8.172h-2.34l2.16-8.172zm10.73 20.556-4.04 9.684h-2.19l2.63-9.684h3.6zm-249.19 45.616h-3.672l3.456-8.172h2.34l-2.124 8.172zm5.832 0h-3.672l3.456-8.172h2.34l-2.124 8.172zm9.356 0.828c0.648-1.128 1.608-2.064 2.88-2.808 1.296-0.768 2.796-1.152 4.5-1.152 1.752 0 3.336 0.42 4.752 1.26 1.44 0.84 2.568 2.028 3.384 3.564 0.816 1.512 1.224 3.276 1.224 5.292 0 1.992-0.408 3.768-1.224 5.328s-1.944 2.772-3.384 3.636c-1.416 0.864-3 1.296-4.752 1.296-1.68 0-3.168-0.372-4.464-1.116-1.272-0.768-2.244-1.716-2.916-2.844v12.996h-3.276v-29.088h3.276v3.636zm13.392 6.156c0-1.488-0.3-2.784-0.9-3.888s-1.416-1.944-2.448-2.52c-1.008-0.576-2.124-0.864-3.348-0.864-1.2 0-2.316 0.3-3.348 0.9-1.008 0.576-1.824 1.428-2.448 2.556-0.6 1.104-0.9 2.388-0.9 3.852 0 1.488 0.3 2.796 0.9 3.924 0.624 1.104 1.44 1.956 2.448 2.556 1.032 0.576 2.148 0.864 3.348 0.864 1.224 0 2.34-0.288 3.348-0.864 1.032-0.6 1.848-1.452 2.448-2.556 0.6-1.128 0.9-2.448 0.9-3.96zm10.936-6.588c0.576-1.128 1.392-2.004 2.448-2.628 1.08-0.624 2.39-0.936 3.92-0.936v3.384h-0.86c-3.672 0-5.508 1.992-5.508 5.976v10.728h-3.276v-19.728h3.276v3.204zm11.848-6.408c-0.63 0-1.15-0.216-1.59-0.648-0.43-0.432-0.64-0.96-0.64-1.584s0.21-1.152 0.64-1.584c0.44-0.432 0.96-0.648 1.59-0.648 0.6 0 1.1 0.216 1.51 0.648 0.43 0.432 0.65 0.96 0.65 1.584s-0.22 1.152-0.65 1.584c-0.41 0.432-0.91 0.648-1.51 0.648zm1.58 3.204v19.728h-3.27v-19.728h3.27zm29.31-0.36c1.53 0 2.9 0.324 4.1 0.972 1.2 0.624 2.15 1.572 2.85 2.844 0.69 1.272 1.04 2.82 1.04 4.644v11.628h-3.24v-11.16c0-1.968-0.49-3.468-1.48-4.5-0.96-1.056-2.26-1.584-3.92-1.584-1.7 0-3.06 0.552-4.07 1.656-1.01 1.08-1.51 2.652-1.51 4.716v10.872h-3.24v-11.16c0-1.968-0.49-3.468-1.48-4.5-0.96-1.056-2.26-1.584-3.92-1.584-1.7 0-3.06 0.552-4.07 1.656-1.01 1.08-1.51 2.652-1.51 4.716v10.872h-3.28v-19.728h3.28v2.844c0.65-1.032 1.51-1.824 2.59-2.376 1.11-0.552 2.32-0.828 3.64-0.828 1.65 0 3.12 0.372 4.39 1.116s2.22 1.836 2.84 3.276c0.56-1.392 1.47-2.472 2.74-3.24s2.69-1.152 4.25-1.152zm12.14 10.152c0-2.016 0.41-3.78 1.22-5.292 0.82-1.536 1.94-2.724 3.35-3.564 1.44-0.84 3.04-1.26 4.79-1.26 1.73 0 3.23 0.372 4.5 1.116s2.22 1.68 2.84 2.808v-3.6h3.32v19.728h-3.32v-3.672c-0.64 1.152-1.62 2.112-2.91 2.88-1.27 0.744-2.76 1.116-4.47 1.116-1.75 0-3.33-0.432-4.75-1.296-1.41-0.864-2.53-2.076-3.35-3.636-0.81-1.56-1.22-3.336-1.22-5.328zm16.7 0.036c0-1.488-0.3-2.784-0.9-3.888s-1.41-1.944-2.44-2.52c-1.01-0.6-2.13-0.9-3.35-0.9-1.23 0-2.34 0.288-3.35 0.864s-1.81 1.416-2.41 2.52-0.9 2.4-0.9 3.888c0 1.512 0.3 2.832 0.9 3.96 0.6 1.104 1.4 1.956 2.41 2.556 1.01 0.576 2.12 0.864 3.35 0.864 1.22 0 2.34-0.288 3.35-0.864 1.03-0.6 1.84-1.452 2.44-2.556 0.6-1.128 0.9-2.436 0.9-3.924zm12.13-6.624c0.57-1.128 1.39-2.004 2.45-2.628 1.08-0.624 2.38-0.936 3.92-0.936v3.384h-0.86c-3.68 0-5.51 1.992-5.51 5.976v10.728h-3.28v-19.728h3.28v3.204zm27.14-3.204-11.88 29.016h-3.38l3.89-9.504-7.96-19.512h3.64l6.19 15.984 6.12-15.984h3.38zm3.8-5.364h3.64l-3.46 8.172h-2.3l2.12-8.172zm5.83 0h3.64l-3.46 8.172h-2.34l2.16-8.172zm10.73 20.556-4.03 9.684h-2.2l2.63-9.684h3.6zm-170.72 45.616h-3.672l3.456-8.172h2.34l-2.124 8.172zm5.832 0h-3.672l3.456-8.172h2.34l-2.124 8.172zm13.064 17.244c-1.512 0-2.868-0.252-4.068-0.756-1.2-0.528-2.148-1.248-2.844-2.16-0.696-0.936-1.08-2.004-1.152-3.204h3.384c0.096 0.984 0.552 1.788 1.368 2.412 0.84 0.624 1.932 0.936 3.276 0.936 1.248 0 2.232-0.276 2.952-0.828s1.08-1.248 1.08-2.088c0-0.864-0.384-1.5-1.152-1.908-0.768-0.432-1.956-0.852-3.564-1.26-1.464-0.384-2.664-0.768-3.6-1.152-0.912-0.408-1.704-0.996-2.376-1.764-0.648-0.792-0.972-1.824-0.972-3.096 0-1.008 0.3-1.932 0.9-2.772s1.452-1.5 2.556-1.98c1.104-0.504 2.364-0.756 3.78-0.756 2.184 0 3.948 0.552 5.292 1.656s2.064 2.616 2.16 4.536h-3.276c-0.072-1.032-0.492-1.86-1.26-2.484-0.744-0.624-1.752-0.936-3.024-0.936-1.176 0-2.112 0.252-2.808 0.756s-1.044 1.164-1.044 1.98c0 0.648 0.204 1.188 0.612 1.62 0.432 0.408 0.96 0.744 1.584 1.008 0.648 0.24 1.536 0.516 2.664 0.828 1.416 0.384 2.568 0.768 3.456 1.152 0.888 0.36 1.644 0.912 2.268 1.656 0.648 0.744 0.984 1.716 1.008 2.916 0 1.08-0.3 2.052-0.9 2.916s-1.452 1.548-2.556 2.052c-1.08 0.48-2.328 0.72-3.744 0.72zm29.828-10.944c0 0.624-0.04 1.284-0.11 1.98h-15.77c0.12 1.944 0.78 3.468 1.98 4.572 1.224 1.08 2.7 1.62 4.428 1.62 1.416 0 2.592-0.324 3.532-0.972 0.96-0.672 1.63-1.56 2.01-2.664h3.53c-0.53 1.896-1.58 3.444-3.17 4.644-1.58 1.176-3.55 1.764-5.902 1.764-1.872 0-3.552-0.42-5.04-1.26-1.464-0.84-2.616-2.028-3.456-3.564-0.84-1.56-1.26-3.36-1.26-5.4s0.408-3.828 1.224-5.364 1.956-2.712 3.42-3.528c1.488-0.84 3.192-1.26 5.112-1.26 1.872 0 3.532 0.408 4.972 1.224s2.54 1.944 3.31 3.384c0.79 1.416 1.19 3.024 1.19 4.824zm-3.39-0.684c0-1.248-0.27-2.316-0.83-3.204-0.55-0.912-1.3-1.596-2.26-2.052-0.94-0.48-1.984-0.72-3.136-0.72-1.656 0-3.072 0.528-4.248 1.584-1.152 1.056-1.812 2.52-1.98 4.392h12.454zm6.49 1.404c0-2.04 0.4-3.816 1.22-5.328 0.82-1.536 1.94-2.724 3.38-3.564 1.47-0.84 3.14-1.26 5.01-1.26 2.42 0 4.41 0.588 5.97 1.764 1.59 1.176 2.63 2.808 3.14 4.896h-3.53c-0.34-1.2-1-2.148-1.98-2.844-0.96-0.696-2.16-1.044-3.6-1.044-1.87 0-3.39 0.648-4.54 1.944-1.15 1.272-1.73 3.084-1.73 5.436 0 2.376 0.58 4.212 1.73 5.508s2.67 1.944 4.54 1.944c1.44 0 2.64-0.336 3.6-1.008s1.62-1.632 1.98-2.88h3.53c-0.53 2.016-1.59 3.636-3.17 4.86-1.59 1.2-3.57 1.8-5.94 1.8-1.87 0-3.54-0.42-5.01-1.26-1.44-0.84-2.56-2.028-3.38-3.564s-1.22-3.336-1.22-5.4zm31.69 10.224c-1.85 0-3.53-0.42-5.04-1.26-1.49-0.84-2.66-2.028-3.53-3.564-0.84-1.56-1.26-3.36-1.26-5.4 0-2.016 0.44-3.792 1.3-5.328 0.89-1.56 2.09-2.748 3.6-3.564 1.51-0.84 3.2-1.26 5.08-1.26 1.87 0 3.56 0.42 5.07 1.26 1.51 0.816 2.7 1.992 3.57 3.528 0.88 1.536 1.33 3.324 1.33 5.364s-0.46 3.84-1.37 5.4c-0.89 1.536-2.1 2.724-3.64 3.564-1.53 0.84-3.24 1.26-5.11 1.26zm0-2.88c1.18 0 2.28-0.276 3.31-0.828 1.04-0.552 1.86-1.38 2.49-2.484 0.65-1.104 0.97-2.448 0.97-4.032s-0.31-2.928-0.94-4.032c-0.62-1.104-1.44-1.92-2.44-2.448-1.01-0.552-2.1-0.828-3.28-0.828-1.2 0-2.3 0.276-3.31 0.828-0.99 0.528-1.78 1.344-2.38 2.448s-0.9 2.448-0.9 4.032c0 1.608 0.29 2.964 0.87 4.068 0.6 1.104 1.39 1.932 2.37 2.484 0.99 0.528 2.07 0.792 3.24 0.792zm24.04-17.532c2.4 0 4.34 0.732 5.83 2.196 1.49 1.44 2.23 3.528 2.23 6.264v11.628h-3.24v-11.16c0-1.968-0.49-3.468-1.47-4.5-0.99-1.056-2.33-1.584-4.04-1.584-1.72 0-3.1 0.54-4.14 1.62-1 1.08-1.51 2.652-1.51 4.716v10.908h-3.27v-19.728h3.27v2.808c0.65-1.008 1.53-1.788 2.63-2.34 1.13-0.552 2.36-0.828 3.71-0.828zm12.19 10.152c0-2.016 0.41-3.78 1.22-5.292 0.82-1.536 1.93-2.724 3.35-3.564 1.44-0.84 3.05-1.26 4.82-1.26 1.54 0 2.97 0.36 4.29 1.08 1.32 0.696 2.33 1.62 3.02 2.772v-10.44h3.31v26.64h-3.31v-3.708c-0.65 1.176-1.61 2.148-2.88 2.916-1.27 0.744-2.76 1.116-4.46 1.116-1.75 0-3.35-0.432-4.79-1.296-1.42-0.864-2.53-2.076-3.35-3.636-0.81-1.56-1.22-3.336-1.22-5.328zm16.7 0.036c0-1.488-0.3-2.784-0.9-3.888s-1.41-1.944-2.45-2.52c-1-0.6-2.12-0.9-3.34-0.9-1.23 0-2.34 0.288-3.35 0.864s-1.81 1.416-2.41 2.52-0.9 2.4-0.9 3.888c0 1.512 0.3 2.832 0.9 3.96 0.6 1.104 1.4 1.956 2.41 2.556 1.01 0.576 2.12 0.864 3.35 0.864 1.22 0 2.34-0.288 3.34-0.864 1.04-0.6 1.85-1.452 2.45-2.556 0.6-1.128 0.9-2.436 0.9-3.924zm7.63-0.036c0-2.016 0.4-3.78 1.22-5.292 0.82-1.536 1.93-2.724 3.35-3.564 1.44-0.84 3.03-1.26 4.79-1.26 1.72 0 3.22 0.372 4.5 1.116 1.27 0.744 2.22 1.68 2.84 2.808v-3.6h3.31v19.728h-3.31v-3.672c-0.65 1.152-1.62 2.112-2.92 2.88-1.27 0.744-2.76 1.116-4.46 1.116-1.75 0-3.34-0.432-4.75-1.296-1.42-0.864-2.53-2.076-3.35-3.636s-1.22-3.336-1.22-5.328zm16.7 0.036c0-1.488-0.3-2.784-0.9-3.888s-1.42-1.944-2.45-2.52c-1.01-0.6-2.12-0.9-3.35-0.9-1.22 0-2.34 0.288-3.34 0.864-1.01 0.576-1.82 1.416-2.42 2.52s-0.9 2.4-0.9 3.888c0 1.512 0.3 2.832 0.9 3.96 0.6 1.104 1.41 1.956 2.42 2.556 1 0.576 2.12 0.864 3.34 0.864 1.23 0 2.34-0.288 3.35-0.864 1.03-0.6 1.85-1.452 2.45-2.556 0.6-1.128 0.9-2.436 0.9-3.924zm12.12-6.624c0.58-1.128 1.4-2.004 2.45-2.628 1.08-0.624 2.39-0.936 3.93-0.936v3.384h-0.87c-3.67 0-5.51 1.992-5.51 5.976v10.728h-3.27v-19.728h3.27v3.204zm27.15-3.204-11.88 29.016h-3.38l3.88-9.504-7.95-19.512h3.63l6.2 15.984 6.12-15.984h3.38zm3.8-5.364h3.63l-3.45 8.172h-2.31l2.13-8.172zm5.83 0h3.64l-3.46 8.172h-2.34l2.16-8.172zm-193.24 83.416c-1.848 0-3.528-0.42-5.04-1.26-1.488-0.84-2.664-2.028-3.528-3.564-0.84-1.56-1.26-3.36-1.26-5.4 0-2.016 0.432-3.792 1.296-5.328 0.888-1.56 2.088-2.748 3.6-3.564 1.512-0.84 3.204-1.26 5.076-1.26s3.564 0.42 5.076 1.26c1.512 0.816 2.7 1.992 3.564 3.528 0.888 1.536 1.332 3.324 1.332 5.364s-0.456 3.84-1.368 5.4c-0.888 1.536-2.1 2.724-3.636 3.564s-3.24 1.26-5.112 1.26zm0-2.88c1.176 0 2.28-0.276 3.312-0.828s1.86-1.38 2.484-2.484c0.648-1.104 0.972-2.448 0.972-4.032s-0.312-2.928-0.936-4.032-1.44-1.92-2.448-2.448c-1.008-0.552-2.1-0.828-3.276-0.828-1.2 0-2.304 0.276-3.312 0.828-0.984 0.528-1.776 1.344-2.376 2.448s-0.9 2.448-0.9 4.032c0 1.608 0.288 2.964 0.864 4.068 0.6 1.104 1.392 1.932 2.376 2.484 0.984 0.528 2.064 0.792 3.24 0.792zm17.699-13.968c0.576-1.128 1.392-2.004 2.448-2.628 1.08-0.624 2.388-0.936 3.924-0.936v3.384h-0.864c-3.672 0-5.508 1.992-5.508 5.976v10.728h-3.276v-19.728h3.276v3.204zm21.517-0.396h-3.67l3.45-8.172h2.34l-2.12 8.172zm5.83 0h-3.67l3.45-8.172h2.34l-2.12 8.172zm4.86 6.984c0-2.016 0.4-3.78 1.22-5.292 0.82-1.536 1.93-2.724 3.35-3.564 1.44-0.84 3.03-1.26 4.79-1.26 1.72 0 3.22 0.372 4.5 1.116 1.27 0.744 2.22 1.68 2.84 2.808v-3.6h3.31v19.728h-3.31v-3.672c-0.65 1.152-1.62 2.112-2.92 2.88-1.27 0.744-2.76 1.116-4.46 1.116-1.75 0-3.34-0.432-4.75-1.296-1.42-0.864-2.53-2.076-3.35-3.636s-1.22-3.336-1.22-5.328zm16.7 0.036c0-1.488-0.3-2.784-0.9-3.888s-1.42-1.944-2.45-2.52c-1.01-0.6-2.12-0.9-3.35-0.9-1.22 0-2.34 0.288-3.34 0.864-1.01 0.576-1.82 1.416-2.42 2.52s-0.9 2.4-0.9 3.888c0 1.512 0.3 2.832 0.9 3.96 0.6 1.104 1.41 1.956 2.42 2.556 1 0.576 2.12 0.864 3.34 0.864 1.23 0 2.34-0.288 3.35-0.864 1.03-0.6 1.85-1.452 2.45-2.556 0.6-1.128 0.9-2.436 0.9-3.924zm7.62 0c0-2.04 0.41-3.816 1.23-5.328 0.81-1.536 1.94-2.724 3.38-3.564 1.47-0.84 3.13-1.26 5.01-1.26 2.42 0 4.41 0.588 5.97 1.764 1.59 1.176 2.63 2.808 3.13 4.896h-3.52c-0.34-1.2-1-2.148-1.98-2.844-0.96-0.696-2.16-1.044-3.6-1.044-1.88 0-3.39 0.648-4.54 1.944-1.15 1.272-1.73 3.084-1.73 5.436 0 2.376 0.58 4.212 1.73 5.508s2.66 1.944 4.54 1.944c1.44 0 2.64-0.336 3.6-1.008s1.62-1.632 1.98-2.88h3.52c-0.52 2.016-1.58 3.636-3.16 4.86-1.59 1.2-3.57 1.8-5.94 1.8-1.88 0-3.54-0.42-5.01-1.26-1.44-0.84-2.57-2.028-3.38-3.564-0.82-1.536-1.23-3.336-1.23-5.4zm21.87 0c0-2.04 0.41-3.816 1.23-5.328 0.81-1.536 1.94-2.724 3.38-3.564 1.46-0.84 3.13-1.26 5-1.26 2.43 0 4.42 0.588 5.98 1.764 1.58 1.176 2.63 2.808 3.13 4.896h-3.53c-0.33-1.2-0.99-2.148-1.98-2.844-0.96-0.696-2.16-1.044-3.6-1.044-1.87 0-3.38 0.648-4.53 1.944-1.15 1.272-1.73 3.084-1.73 5.436 0 2.376 0.58 4.212 1.73 5.508s2.66 1.944 4.53 1.944c1.44 0 2.64-0.336 3.6-1.008s1.62-1.632 1.98-2.88h3.53c-0.53 2.016-1.58 3.636-3.17 4.86-1.58 1.2-3.56 1.8-5.94 1.8-1.87 0-3.54-0.42-5-1.26-1.44-0.84-2.57-2.028-3.38-3.564-0.82-1.536-1.23-3.336-1.23-5.4zm41.09-0.72c0 0.624-0.03 1.284-0.11 1.98h-15.76c0.12 1.944 0.78 3.468 1.98 4.572 1.22 1.08 2.7 1.62 4.42 1.62 1.42 0 2.6-0.324 3.53-0.972 0.96-0.672 1.63-1.56 2.02-2.664h3.53c-0.53 1.896-1.59 3.444-3.17 4.644-1.59 1.176-3.55 1.764-5.91 1.764-1.87 0-3.55-0.42-5.04-1.26-1.46-0.84-2.61-2.028-3.45-3.564-0.84-1.56-1.26-3.36-1.26-5.4s0.41-3.828 1.22-5.364c0.82-1.536 1.96-2.712 3.42-3.528 1.49-0.84 3.19-1.26 5.11-1.26 1.88 0 3.53 0.408 4.97 1.224s2.55 1.944 3.31 3.384c0.8 1.416 1.19 3.024 1.19 4.824zm-3.38-0.684c0-1.248-0.28-2.316-0.83-3.204-0.55-0.912-1.31-1.596-2.27-2.052-0.93-0.48-1.98-0.72-3.13-0.72-1.66 0-3.07 0.528-4.25 1.584-1.15 1.056-1.81 2.52-1.98 4.392h12.46zm17.32-8.784c2.4 0 4.34 0.732 5.83 2.196 1.49 1.44 2.23 3.528 2.23 6.264v11.628h-3.24v-11.16c0-1.968-0.49-3.468-1.47-4.5-0.99-1.056-2.33-1.584-4.04-1.584-1.72 0-3.1 0.54-4.14 1.62-1 1.08-1.51 2.652-1.51 4.716v10.908h-3.27v-19.728h3.27v2.808c0.65-1.008 1.53-1.788 2.63-2.34 1.13-0.552 2.36-0.828 3.71-0.828zm17.41 3.06v11.628c0 0.96 0.2 1.644 0.61 2.052 0.41 0.384 1.12 0.576 2.13 0.576h2.41v2.772h-2.95c-1.83 0-3.2-0.42-4.11-1.26s-1.37-2.22-1.37-4.14v-11.628h-2.55v-2.7h2.55v-4.968h3.28v4.968h5.15v2.7h-5.15zm9.62-8.064h3.64l-3.46 8.172h-2.3l2.12-8.172zm5.83 0h3.64l-3.46 8.172h-2.34l2.16-8.172z" fill="#ddd"/>
<path d="m445.51 191.5c0-5.667 1.133-10.6 3.4-14.8 2.267-4.267 5.4-7.567 9.4-9.9 4.067-2.333 8.7-3.5 13.9-3.5 6.733 0 12.267 1.633 16.6 4.9 4.4 3.267 7.3 7.8 8.7 13.6h-9.8c-0.933-3.333-2.767-5.967-5.5-7.9-2.667-1.933-6-2.9-10-2.9-5.2 0-9.4 1.8-12.6 5.4-3.2 3.533-4.8 8.567-4.8 15.1 0 6.6 1.6 11.7 4.8 15.3s7.4 5.4 12.6 5.4c4 0 7.333-0.933 10-2.8s4.5-4.533 5.5-8h9.8c-1.467 5.6-4.4 10.1-8.8 13.5-4.4 3.333-9.9 5-16.5 5-5.2 0-9.833-1.167-13.9-3.5-4-2.333-7.133-5.633-9.4-9.9s-3.4-9.267-3.4-15zm91.342-28.3c4.134 0 7.867 0.9 11.2 2.7 3.334 1.733 5.934 4.367 7.8 7.9 1.934 3.533 2.9 7.833 2.9 12.9v32.3h-9v-31c0-5.467-1.366-9.633-4.1-12.5-2.733-2.933-6.466-4.4-11.2-4.4-4.8 0-8.633 1.5-11.5 4.5-2.8 3-4.2 7.367-4.2 13.1v30.3h-9.1v-74h9.1v27c1.8-2.8 4.267-4.967 7.4-6.5 3.2-1.533 6.767-2.3 10.7-2.3zm45.865 9.9c1.6-3.133 3.867-5.567 6.8-7.3 3-1.733 6.633-2.6 10.9-2.6v9.4h-2.4c-10.2 0-15.3 5.533-15.3 16.6v29.8h-9.1v-54.8h9.1v8.9zm52.105 46.8c-5.134 0-9.8-1.167-14-3.5-4.134-2.333-7.4-5.633-9.8-9.9-2.334-4.333-3.5-9.333-3.5-15 0-5.6 1.2-10.533 3.6-14.8 2.466-4.333 5.8-7.633 10-9.9 4.2-2.333 8.9-3.5 14.1-3.5s9.9 1.167 14.1 3.5c4.2 2.267 7.5 5.533 9.9 9.8 2.466 4.267 3.7 9.233 3.7 14.9s-1.267 10.667-3.8 15c-2.467 4.267-5.834 7.567-10.1 9.9-4.267 2.333-9 3.5-14.2 3.5zm0-8c3.266 0 6.333-0.767 9.2-2.3 2.866-1.533 5.166-3.833 6.9-6.9 1.8-3.067 2.7-6.8 2.7-11.2s-0.867-8.133-2.6-11.2c-1.734-3.067-4-5.333-6.8-6.8-2.8-1.533-5.834-2.3-9.1-2.3-3.334 0-6.4 0.767-9.2 2.3-2.734 1.467-4.934 3.733-6.6 6.8-1.667 3.067-2.5 6.8-2.5 11.2 0 4.467 0.8 8.233 2.4 11.3 1.666 3.067 3.866 5.367 6.6 6.9 2.733 1.467 5.733 2.2 9 2.2zm105.96-48.7c4.266 0 8.066 0.9 11.4 2.7 3.333 1.733 5.966 4.367 7.9 7.9 1.933 3.533 2.9 7.833 2.9 12.9v32.3h-9v-31c0-5.467-1.367-9.633-4.1-12.5-2.667-2.933-6.3-4.4-10.9-4.4-4.734 0-8.5 1.533-11.3 4.6-2.8 3-4.2 7.367-4.2 13.1v30.2h-9v-31c0-5.467-1.367-9.633-4.1-12.5-2.667-2.933-6.3-4.4-10.9-4.4-4.734 0-8.5 1.533-11.3 4.6-2.8 3-4.2 7.367-4.2 13.1v30.2h-9.1v-54.8h9.1v7.9c1.8-2.867 4.2-5.067 7.2-6.6 3.066-1.533 6.433-2.3 10.1-2.3 4.6 0 8.666 1.033 12.2 3.1 3.533 2.067 6.166 5.1 7.9 9.1 1.533-3.867 4.066-6.867 7.6-9 3.533-2.133 7.466-3.2 11.8-3.2zm33.727 28.2c0-5.6 1.133-10.5 3.4-14.7 2.267-4.267 5.367-7.567 9.3-9.9 4-2.333 8.433-3.5 13.3-3.5 4.8 0 8.967 1.033 12.5 3.1s6.167 4.667 7.9 7.8v-10h9.2v54.8h-9.2v-10.2c-1.8 3.2-4.5 5.867-8.1 8-3.533 2.067-7.667 3.1-12.4 3.1-4.867 0-9.267-1.2-13.2-3.6s-7.033-5.767-9.3-10.1-3.4-9.267-3.4-14.8zm46.4 0.1c0-4.133-0.833-7.733-2.5-10.8s-3.933-5.4-6.8-7c-2.8-1.667-5.9-2.5-9.3-2.5s-6.5 0.8-9.3 2.4-5.033 3.933-6.7 7-2.5 6.667-2.5 10.8c0 4.2 0.833 7.867 2.5 11 1.667 3.067 3.9 5.433 6.7 7.1 2.8 1.6 5.9 2.4 9.3 2.4s6.5-0.8 9.3-2.4c2.867-1.667 5.133-4.033 6.8-7.1 1.667-3.133 2.5-6.767 2.5-10.9z" fill="#fff"/>
<path d="m970.92 174.3c1.8-3.133 4.467-5.733 8-7.8 3.6-2.133 7.767-3.2 12.5-3.2 4.867 0 9.265 1.167 13.195 3.5 4 2.333 7.14 5.633 9.41 9.9 2.26 4.2 3.4 9.1 3.4 14.7 0 5.533-1.14 10.467-3.4 14.8-2.27 4.333-5.41 7.7-9.41 10.1-3.93 2.4-8.328 3.6-13.195 3.6-4.667 0-8.8-1.033-12.4-3.1-3.533-2.133-6.233-4.767-8.1-7.9v36.1h-9.1v-80.8h9.1v10.1zm37.205 17.1c0-4.133-0.84-7.733-2.5-10.8-1.67-3.067-3.94-5.4-6.805-7-2.8-1.6-5.9-2.4-9.3-2.4-3.333 0-6.433 0.833-9.3 2.5-2.8 1.6-5.067 3.967-6.8 7.1-1.667 3.067-2.5 6.633-2.5 10.7 0 4.133 0.833 7.767 2.5 10.9 1.733 3.067 4 5.433 6.8 7.1 2.867 1.6 5.967 2.4 9.3 2.4 3.4 0 6.5-0.8 9.3-2.4 2.865-1.667 5.135-4.033 6.805-7.1 1.66-3.133 2.5-6.8 2.5-11zm30.37-18.3c1.6-3.133 3.87-5.567 6.8-7.3 3-1.733 6.64-2.6 10.9-2.6v9.4h-2.4c-10.2 0-15.3 5.533-15.3 16.6v29.8h-9.1v-54.8h9.1v8.9zm32.91-17.8c-1.74 0-3.2-0.6-4.4-1.8s-1.8-2.667-1.8-4.4 0.6-3.2 1.8-4.4 2.66-1.8 4.4-1.8c1.66 0 3.06 0.6 4.2 1.8 1.2 1.2 1.8 2.667 1.8 4.4s-0.6 3.2-1.8 4.4c-1.14 1.2-2.54 1.8-4.2 1.8zm4.4 8.9v54.8h-9.1v-54.8h9.1zm81.41-1c4.26 0 8.06 0.9 11.4 2.7 3.33 1.733 5.96 4.367 7.9 7.9 1.93 3.533 2.9 7.833 2.9 12.9v32.3h-9v-31c0-5.467-1.37-9.633-4.1-12.5-2.67-2.933-6.3-4.4-10.9-4.4-4.74 0-8.5 1.533-11.3 4.6-2.8 3-4.2 7.367-4.2 13.1v30.2h-9v-31c0-5.467-1.37-9.633-4.1-12.5-2.67-2.933-6.3-4.4-10.9-4.4-4.74 0-8.5 1.533-11.3 4.6-2.8 3-4.2 7.367-4.2 13.1v30.2h-9.1v-54.8h9.1v7.9c1.8-2.867 4.2-5.067 7.2-6.6 3.06-1.533 6.43-2.3 10.1-2.3 4.6 0 8.66 1.033 12.2 3.1 3.53 2.067 6.16 5.1 7.9 9.1 1.53-3.867 4.06-6.867 7.6-9 3.53-2.133 7.46-3.2 11.8-3.2zm33.72 28.2c0-5.6 1.14-10.5 3.4-14.7 2.27-4.267 5.37-7.567 9.3-9.9 4-2.333 8.44-3.5 13.3-3.5 4.8 0 8.97 1.033 12.5 3.1 3.54 2.067 6.17 4.667 7.9 7.8v-10h9.2v54.8h-9.2v-10.2c-1.8 3.2-4.5 5.867-8.1 8-3.53 2.067-7.66 3.1-12.4 3.1-4.86 0-9.26-1.2-13.2-3.6-3.93-2.4-7.03-5.767-9.3-10.1-2.26-4.333-3.4-9.267-3.4-14.8zm46.4 0.1c0-4.133-0.83-7.733-2.5-10.8-1.66-3.067-3.93-5.4-6.8-7-2.8-1.667-5.9-2.5-9.3-2.5s-6.5 0.8-9.3 2.4-5.03 3.933-6.7 7c-1.66 3.067-2.5 6.667-2.5 10.8 0 4.2 0.84 7.867 2.5 11 1.67 3.067 3.9 5.433 6.7 7.1 2.8 1.6 5.9 2.4 9.3 2.4s6.5-0.8 9.3-2.4c2.87-1.667 5.14-4.033 6.8-7.1 1.67-3.133 2.5-6.767 2.5-10.9zm33.68-18.4c1.6-3.133 3.87-5.567 6.8-7.3 3-1.733 6.64-2.6 10.9-2.6v9.4h-2.4c-10.2 0-15.3 5.533-15.3 16.6v29.8h-9.1v-54.8h9.1v8.9zm75.41-8.9-33 80.6h-9.4l10.8-26.4-22.1-54.2h10.1l17.2 44.4 17-44.4h9.4z" fill="#fff"/>
<path d="m1523 153.8-27.8 65.2h-9.2l28.2-64.3h-38.6v-7.8h47.4v6.9zm56.19 0.8h-35.1v22.8c1.53-2.133 3.8-3.867 6.8-5.2 3-1.4 6.23-2.1 9.7-2.1 5.53 0 10.03 1.167 13.5 3.5 3.47 2.267 5.93 5.233 7.4 8.9 1.53 3.6 2.3 7.433 2.3 11.5 0 4.8-0.9 9.1-2.7 12.9s-4.57 6.8-8.3 9c-3.67 2.2-8.23 3.3-13.7 3.3-7 0-12.67-1.8-17-5.4s-6.97-8.4-7.9-14.4h8.9c0.87 3.8 2.7 6.767 5.5 8.9s6.33 3.2 10.6 3.2c5.27 0 9.23-1.567 11.9-4.7 2.67-3.2 4-7.4 4-12.6s-1.33-9.2-4-12c-2.67-2.867-6.6-4.3-11.8-4.3-3.53 0-6.63 0.867-9.3 2.6-2.6 1.667-4.5 3.967-5.7 6.9h-8.6v-40.8h43.5v8z" fill="#fff"/>
<line x1="344" x2="424" y1="191.5" y2="191.5" stroke="#FFE1E1" stroke-width="9"/>
<line x1="851" x2="931" y1="191.5" y2="191.5" stroke="#FFE1E1" stroke-width="9"/>
<line x1="1364" x2="1444" y1="191.5" y2="191.5" stroke="#FFE1E1" stroke-width="9"/>
<path d="m256.88 420.12c1.171 1.172 3.071 1.172 4.242 0l19.092-19.092c1.172-1.171 1.172-3.071 0-4.242-1.171-1.172-3.071-1.172-4.242 0l-16.971 16.97-16.971-16.97c-1.171-1.172-3.071-1.172-4.242 0-1.172 1.171-1.172 3.071 0 4.242l19.092 19.092zm-0.879-137.12v135h6v-135h-6z" fill="#FFE1E1"/>
<path d="m636.88 420.12c1.171 1.172 3.071 1.172 4.242 0l19.092-19.092c1.172-1.171 1.172-3.071 0-4.242-1.171-1.172-3.071-1.172-4.242 0l-16.971 16.97-16.971-16.97c-1.171-1.172-3.071-1.172-4.242 0-1.172 1.171-1.172 3.071 0 4.242l19.092 19.092zm-0.879-137.12v135h6v-135h-6z" fill="#FFE1E1"/>
<path d="m1148.9 420.12c1.17 1.172 3.07 1.172 4.24 0l19.09-19.092c1.17-1.171 1.17-3.071 0-4.242-1.17-1.172-3.07-1.172-4.24 0l-16.97 16.97-16.97-16.97c-1.17-1.172-3.07-1.172-4.24 0-1.17 1.171-1.17 3.071 0 4.242l19.09 19.092zm-0.88-137.12v135h6v-135h-6z" fill="#FFE1E1"/>
<path d="m1529.9 420.12c1.17 1.172 3.07 1.172 4.24 0l19.09-19.092c1.17-1.171 1.17-3.071 0-4.242-1.17-1.172-3.07-1.172-4.24 0l-16.97 16.97-16.97-16.97c-1.17-1.172-3.07-1.172-4.24 0-1.17 1.171-1.17 3.071 0 4.242l19.09 19.092zm-0.88-137.12v135h6v-135h-6z" fill="#FFE1E1"/>
<circle cx="181" cy="510" r="10" fill="#5484FF"/>
<rect x="491" y="452" width="305" height="248" rx="19" fill="#000" fill-opacity=".1"/>
<path d="m575.95 498.52c-0.693 0-1.28-0.24-1.76-0.72s-0.72-1.067-0.72-1.76 0.24-1.28 0.72-1.76 1.067-0.72 1.76-0.72c0.667 0 1.227 0.24 1.68 0.72 0.48 0.48 0.72 1.067 0.72 1.76s-0.24 1.28-0.72 1.76c-0.453 0.48-1.013 0.72-1.68 0.72zm1.76 3.56v21.92h-3.64v-21.92h3.64zm16.884-0.4c2.667 0 4.827 0.813 6.48 2.44 1.653 1.6 2.48 3.92 2.48 6.96v12.92h-3.6v-12.4c0-2.187-0.547-3.853-1.64-5-1.093-1.173-2.587-1.76-4.48-1.76-1.92 0-3.453 0.6-4.6 1.8-1.12 1.2-1.68 2.947-1.68 5.24v12.12h-3.64v-21.92h3.64v3.12c0.72-1.12 1.693-1.987 2.92-2.6 1.253-0.613 2.627-0.92 4.12-0.92zm23.826 3.4h-4.6v18.92h-3.64v-18.92h-2.84v-3h2.84v-1.56c0-2.453 0.627-4.24 1.88-5.36 1.28-1.147 3.32-1.72 6.12-1.72v3.04c-1.6 0-2.733 0.32-3.4 0.96-0.64 0.613-0.96 1.64-0.96 3.08v1.56h4.6v3zm6.124-6.56c-0.693 0-1.28-0.24-1.76-0.72s-0.72-1.067-0.72-1.76 0.24-1.28 0.72-1.76 1.067-0.72 1.76-0.72c0.667 0 1.227 0.24 1.68 0.72 0.48 0.48 0.72 1.067 0.72 1.76s-0.24 1.28-0.72 1.76c-0.453 0.48-1.013 0.72-1.68 0.72zm1.76 3.56v21.92h-3.64v-21.92h3.64zm17.644 21.92-5.2-8.16-5 8.16h-3.8l7.08-10.88-7.08-11.04h4.12l5.2 8.12 4.96-8.12h3.8l-7.04 10.84 7.08 11.08h-4.12zm-94.15 40.972h-4.14v17.028h-3.276v-17.028h-2.556v-2.7h2.556v-1.404c0-2.208 0.564-3.816 1.692-4.824 1.152-1.032 2.988-1.548 5.508-1.548v2.736c-1.44 0-2.46 0.288-3.06 0.864-0.576 0.552-0.864 1.476-0.864 2.772v1.404h4.14v2.7zm5.512-5.904c-0.624 0-1.152-0.216-1.584-0.648s-0.648-0.96-0.648-1.584 0.216-1.152 0.648-1.584 0.96-0.648 1.584-0.648c0.6 0 1.104 0.216 1.512 0.648 0.432 0.432 0.648 0.96 0.648 1.584s-0.216 1.152-0.648 1.584c-0.408 0.432-0.912 0.648-1.512 0.648zm1.584 3.204v19.728h-3.276v-19.728h3.276zm15.879 19.728-4.68-7.344-4.5 7.344h-3.42l6.372-9.792-6.372-9.936h3.708l4.68 7.308 4.464-7.308h3.42l-6.336 9.756 6.372 9.972h-3.708zm24.931-10.62c0 0.624-0.036 1.284-0.108 1.98h-15.768c0.12 1.944 0.78 3.468 1.98 4.572 1.224 1.08 2.7 1.62 4.428 1.62 1.416 0 2.592-0.324 3.528-0.972 0.96-0.672 1.632-1.56 2.016-2.664h3.528c-0.528 1.896-1.584 3.444-3.168 4.644-1.584 1.176-3.552 1.764-5.904 1.764-1.872 0-3.552-0.42-5.04-1.26-1.464-0.84-2.616-2.028-3.456-3.564-0.84-1.56-1.26-3.36-1.26-5.4s0.408-3.828 1.224-5.364 1.956-2.712 3.42-3.528c1.488-0.84 3.192-1.26 5.112-1.26 1.872 0 3.528 0.408 4.968 1.224s2.544 1.944 3.312 3.384c0.792 1.416 1.188 3.024 1.188 4.824zm-3.384-0.684c0-1.248-0.276-2.316-0.828-3.204-0.552-0.912-1.308-1.596-2.268-2.052-0.936-0.48-1.98-0.72-3.132-0.72-1.656 0-3.072 0.528-4.248 1.584-1.152 1.056-1.812 2.52-1.98 4.392h12.456zm6.484 1.368c0-2.016 0.408-3.78 1.224-5.292 0.816-1.536 1.932-2.724 3.348-3.564 1.44-0.84 3.048-1.26 4.824-1.26 1.536 0 2.964 0.36 4.284 1.08 1.32 0.696 2.328 1.62 3.024 2.772v-10.44h3.312v26.64h-3.312v-3.708c-0.648 1.176-1.608 2.148-2.88 2.916-1.272 0.744-2.76 1.116-4.464 1.116-1.752 0-3.348-0.432-4.788-1.296-1.416-0.864-2.532-2.076-3.348-3.636s-1.224-3.336-1.224-5.328zm16.704 0.036c0-1.488-0.3-2.784-0.9-3.888s-1.416-1.944-2.448-2.52c-1.008-0.6-2.124-0.9-3.348-0.9s-2.34 0.288-3.348 0.864-1.812 1.416-2.412 2.52-0.9 2.4-0.9 3.888c0 1.512 0.3 2.832 0.9 3.96 0.6 1.104 1.404 1.956 2.412 2.556 1.008 0.576 2.124 0.864 3.348 0.864s2.34-0.288 3.348-0.864c1.032-0.6 1.848-1.452 2.448-2.556 0.6-1.128 0.9-2.436 0.9-3.924zm25.79 6.876 6.12-16.704h3.492l-7.74 19.728h-3.816l-7.74-19.728h3.528l6.156 16.704zm11.611-6.912c0-2.016 0.408-3.78 1.224-5.292 0.816-1.536 1.932-2.724 3.348-3.564 1.44-0.84 3.036-1.26 4.788-1.26 1.728 0 3.228 0.372 4.5 1.116s2.22 1.68 2.844 2.808v-3.6h3.312v19.728h-3.312v-3.672c-0.648 1.152-1.62 2.112-2.916 2.88-1.272 0.744-2.76 1.116-4.464 1.116-1.752 0-3.336-0.432-4.752-1.296s-2.532-2.076-3.348-3.636-1.224-3.336-1.224-5.328zm16.704 0.036c0-1.488-0.3-2.784-0.9-3.888s-1.416-1.944-2.448-2.52c-1.008-0.6-2.124-0.9-3.348-0.9s-2.34 0.288-3.348 0.864-1.812 1.416-2.412 2.52-0.9 2.4-0.9 3.888c0 1.512 0.3 2.832 0.9 3.96 0.6 1.104 1.404 1.956 2.412 2.556 1.008 0.576 2.124 0.864 3.348 0.864s2.34-0.288 3.348-0.864c1.032-0.6 1.848-1.452 2.448-2.556 0.6-1.128 0.9-2.436 0.9-3.924zm12.124-16.74v26.64h-3.276v-26.64h3.276zm23.08 6.912v19.728h-3.276v-2.916c-0.624 1.008-1.5 1.8-2.628 2.376-1.104 0.552-2.328 0.828-3.672 0.828-1.536 0-2.916-0.312-4.14-0.936-1.224-0.648-2.196-1.608-2.916-2.88-0.696-1.272-1.044-2.82-1.044-4.644v-11.556h3.24v11.124c0 1.944 0.492 3.444 1.476 4.5 0.984 1.032 2.328 1.548 4.032 1.548 1.752 0 3.132-0.54 4.14-1.62s1.512-2.652 1.512-4.716v-10.836h3.276zm23.531 9.108c0 0.624-0.036 1.284-0.108 1.98h-15.768c0.12 1.944 0.78 3.468 1.98 4.572 1.224 1.08 2.7 1.62 4.428 1.62 1.416 0 2.592-0.324 3.528-0.972 0.96-0.672 1.632-1.56 2.016-2.664h3.528c-0.528 1.896-1.584 3.444-3.168 4.644-1.584 1.176-3.552 1.764-5.904 1.764-1.872 0-3.552-0.42-5.04-1.26-1.464-0.84-2.616-2.028-3.456-3.564-0.84-1.56-1.26-3.36-1.26-5.4s0.408-3.828 1.224-5.364 1.956-2.712 3.42-3.528c1.488-0.84 3.192-1.26 5.112-1.26 1.872 0 3.528 0.408 4.968 1.224s2.544 1.944 3.312 3.384c0.792 1.416 1.188 3.024 1.188 4.824zm-3.384-0.684c0-1.248-0.276-2.316-0.828-3.204-0.552-0.912-1.308-1.596-2.268-2.052-0.936-0.48-1.98-0.72-3.132-0.72-1.656 0-3.072 0.528-4.248 1.584-1.152 1.056-1.812 2.52-1.98 4.392h12.456zm-183.43 52.384h-3.672l3.456-8.172h2.34l-2.124 8.172zm5.832 0h-3.672l3.456-8.172h2.34l-2.124 8.172zm4.856 7.02c0-2.04 0.408-3.816 1.224-5.328 0.816-1.536 1.944-2.724 3.384-3.564 1.464-0.84 3.132-1.26 5.004-1.26 2.424 0 4.416 0.588 5.976 1.764 1.584 1.176 2.628 2.808 3.132 4.896h-3.528c-0.336-1.2-0.996-2.148-1.98-2.844-0.96-0.696-2.16-1.044-3.6-1.044-1.872 0-3.384 0.648-4.536 1.944-1.152 1.272-1.728 3.084-1.728 5.436 0 2.376 0.576 4.212 1.728 5.508s2.664 1.944 4.536 1.944c1.44 0 2.64-0.336 3.6-1.008s1.62-1.632 1.98-2.88h3.528c-0.528 2.016-1.584 3.636-3.168 4.86-1.584 1.2-3.564 1.8-5.94 1.8-1.872 0-3.54-0.42-5.004-1.26-1.44-0.84-2.568-2.028-3.384-3.564s-1.224-3.336-1.224-5.4zm32.883-10.188c1.488 0 2.832 0.324 4.032 0.972 1.2 0.624 2.136 1.572 2.808 2.844 0.696 1.272 1.044 2.82 1.044 4.644v11.628h-3.24v-11.16c0-1.968-0.492-3.468-1.476-4.5-0.984-1.056-2.328-1.584-4.032-1.584-1.728 0-3.108 0.54-4.14 1.62-1.008 1.08-1.512 2.652-1.512 4.716v10.908h-3.276v-26.64h3.276v9.72c0.648-1.008 1.536-1.788 2.664-2.34 1.152-0.552 2.436-0.828 3.852-0.828zm16.511 3.564c0.576-1.128 1.392-2.004 2.448-2.628 1.08-0.624 2.388-0.936 3.924-0.936v3.384h-0.864c-3.672 0-5.508 1.992-5.508 5.976v10.728h-3.276v-19.728h3.276v3.204zm18.758 16.848c-1.848 0-3.528-0.42-5.04-1.26-1.488-0.84-2.664-2.028-3.528-3.564-0.84-1.56-1.26-3.36-1.26-5.4 0-2.016 0.432-3.792 1.296-5.328 0.888-1.56 2.088-2.748 3.6-3.564 1.512-0.84 3.204-1.26 5.076-1.26s3.564 0.42 5.076 1.26c1.512 0.816 2.7 1.992 3.564 3.528 0.888 1.536 1.332 3.324 1.332 5.364s-0.456 3.84-1.368 5.4c-0.888 1.536-2.1 2.724-3.636 3.564s-3.24 1.26-5.112 1.26zm0-2.88c1.176 0 2.28-0.276 3.312-0.828s1.86-1.38 2.484-2.484c0.648-1.104 0.972-2.448 0.972-4.032s-0.312-2.928-0.936-4.032-1.44-1.92-2.448-2.448c-1.008-0.552-2.1-0.828-3.276-0.828-1.2 0-2.304 0.276-3.312 0.828-0.984 0.528-1.776 1.344-2.376 2.448s-0.9 2.448-0.9 4.032c0 1.608 0.288 2.964 0.864 4.068 0.6 1.104 1.392 1.932 2.376 2.484 0.984 0.528 2.064 0.792 3.24 0.792zm38.147-17.532c1.536 0 2.904 0.324 4.104 0.972 1.2 0.624 2.148 1.572 2.844 2.844s1.044 2.82 1.044 4.644v11.628h-3.24v-11.16c0-1.968-0.492-3.468-1.476-4.5-0.96-1.056-2.268-1.584-3.924-1.584-1.704 0-3.06 0.552-4.068 1.656-1.008 1.08-1.512 2.652-1.512 4.716v10.872h-3.24v-11.16c0-1.968-0.492-3.468-1.476-4.5-0.96-1.056-2.268-1.584-3.924-1.584-1.704 0-3.06 0.552-4.068 1.656-1.008 1.08-1.512 2.652-1.512 4.716v10.872h-3.276v-19.728h3.276v2.844c0.648-1.032 1.512-1.824 2.592-2.376 1.104-0.552 2.316-0.828 3.636-0.828 1.656 0 3.12 0.372 4.392 1.116s2.22 1.836 2.844 3.276c0.552-1.392 1.464-2.472 2.736-3.24s2.688-1.152 4.248-1.152zm12.142 10.152c0-2.016 0.408-3.78 1.224-5.292 0.816-1.536 1.932-2.724 3.348-3.564 1.44-0.84 3.036-1.26 4.788-1.26 1.728 0 3.228 0.372 4.5 1.116s2.22 1.68 2.844 2.808v-3.6h3.312v19.728h-3.312v-3.672c-0.648 1.152-1.62 2.112-2.916 2.88-1.272 0.744-2.76 1.116-4.464 1.116-1.752 0-3.336-0.432-4.752-1.296s-2.532-2.076-3.348-3.636-1.224-3.336-1.224-5.328zm16.704 0.036c0-1.488-0.3-2.784-0.9-3.888s-1.416-1.944-2.448-2.52c-1.008-0.6-2.124-0.9-3.348-0.9s-2.34 0.288-3.348 0.864-1.812 1.416-2.412 2.52-0.9 2.4-0.9 3.888c0 1.512 0.3 2.832 0.9 3.96 0.6 1.104 1.404 1.956 2.412 2.556 1.008 0.576 2.124 0.864 3.348 0.864s2.34-0.288 3.348-0.864c1.032-0.6 1.848-1.452 2.448-2.556 0.6-1.128 0.9-2.436 0.9-3.924zm9.352-15.192h3.636l-3.456 8.172h-2.304l2.124-8.172zm5.832 0h3.636l-3.456 8.172h-2.34l2.16-8.172z" fill="#ddd"/>
<circle cx="549" cy="513" r="10" fill="#8BFF54"/>
<circle cx="968" cy="513" r="10" fill="#F72740"/>
<rect x="1377" y="449" width="487" height="307" rx="19" fill="#000" fill-opacity=".1"/>
<path d="m1470.8 524.36c-1.68 0-3.18-0.28-4.52-0.84-1.33-0.587-2.38-1.387-3.16-2.4-0.77-1.04-1.2-2.227-1.28-3.56h3.76c0.11 1.093 0.62 1.987 1.52 2.68 0.94 0.693 2.15 1.04 3.64 1.04 1.39 0 2.48-0.307 3.28-0.92s1.2-1.387 1.2-2.32c0-0.96-0.42-1.667-1.28-2.12-0.85-0.48-2.17-0.947-3.96-1.4-1.62-0.427-2.96-0.853-4-1.28-1.01-0.453-1.89-1.107-2.64-1.96-0.72-0.88-1.08-2.027-1.08-3.44 0-1.12 0.34-2.147 1-3.08 0.67-0.933 1.62-1.667 2.84-2.2 1.23-0.56 2.63-0.84 4.2-0.84 2.43 0 4.39 0.613 5.88 1.84 1.5 1.227 2.3 2.907 2.4 5.04h-3.64c-0.08-1.147-0.54-2.067-1.4-2.76-0.82-0.693-1.94-1.04-3.36-1.04-1.3 0-2.34 0.28-3.12 0.84-0.77 0.56-1.16 1.293-1.16 2.2 0 0.72 0.23 1.32 0.68 1.8 0.48 0.453 1.07 0.827 1.76 1.12 0.72 0.267 1.71 0.573 2.96 0.92 1.58 0.427 2.86 0.853 3.84 1.28 0.99 0.4 1.83 1.013 2.52 1.84 0.72 0.827 1.1 1.907 1.12 3.24 0 1.2-0.33 2.28-1 3.24-0.66 0.96-1.61 1.72-2.84 2.28-1.2 0.533-2.58 0.8-4.16 0.8zm32.58-22.28v21.92h-3.64v-3.24c-0.69 1.12-1.67 2-2.92 2.64-1.23 0.613-2.59 0.92-4.08 0.92-1.71 0-3.24-0.347-4.6-1.04-1.36-0.72-2.44-1.787-3.24-3.2-0.77-1.413-1.16-3.133-1.16-5.16v-12.84h3.6v12.36c0 2.16 0.55 3.827 1.64 5 1.09 1.147 2.59 1.72 4.48 1.72 1.95 0 3.48-0.6 4.6-1.8s1.68-2.947 1.68-5.24v-12.04h3.64zm15.07 3h-4.6v18.92h-3.64v-18.92h-2.84v-3h2.84v-1.56c0-2.453 0.62-4.24 1.88-5.36 1.28-1.147 3.32-1.72 6.12-1.72v3.04c-1.6 0-2.74 0.32-3.4 0.96-0.64 0.613-0.96 1.64-0.96 3.08v1.56h4.6v3zm13.16 0h-4.6v18.92h-3.64v-18.92h-2.84v-3h2.84v-1.56c0-2.453 0.63-4.24 1.88-5.36 1.28-1.147 3.32-1.72 6.12-1.72v3.04c-1.6 0-2.73 0.32-3.4 0.96-0.64 0.613-0.96 1.64-0.96 3.08v1.56h4.6v3zm6.12-6.56c-0.69 0-1.28-0.24-1.76-0.72s-0.72-1.067-0.72-1.76 0.24-1.28 0.72-1.76 1.07-0.72 1.76-0.72c0.67 0 1.23 0.24 1.68 0.72 0.48 0.48 0.72 1.067 0.72 1.76s-0.24 1.28-0.72 1.76c-0.45 0.48-1.01 0.72-1.68 0.72zm1.76 3.56v21.92h-3.64v-21.92h3.64zm17.65 21.92-5.2-8.16-5 8.16h-3.8l7.08-10.88-7.08-11.04h4.12l5.2 8.12 4.96-8.12h3.8l-7.04 10.84 7.08 11.08h-4.12zm17.32-2.92c3.39-2.72 6.04-4.947 7.96-6.68 1.92-1.76 3.54-3.587 4.84-5.48 1.34-1.92 2-3.8 2-5.64 0-1.733-0.42-3.093-1.28-4.08-0.82-1.013-2.17-1.52-4.04-1.52-1.81 0-3.22 0.573-4.24 1.72-0.98 1.12-1.52 2.627-1.6 4.52h-3.52c0.11-2.987 1.02-5.293 2.72-6.92 1.71-1.627 3.91-2.44 6.6-2.44 2.75 0 4.92 0.76 6.52 2.28 1.63 1.52 2.44 3.613 2.44 6.28 0 2.213-0.66 4.373-2 6.48-1.3 2.08-2.8 3.92-4.48 5.52-1.68 1.573-3.82 3.413-6.44 5.52h13.76v3.04h-19.24v-2.6zm44.08 10.36c-2.56-2.507-4.56-5.693-6-9.56-1.42-3.867-2.12-8.04-2.12-12.52 0-4.587 0.74-8.867 2.24-12.84 1.52-4 3.68-7.293 6.48-9.88h3.8v0.36c-2.99 2.8-5.24 6.173-6.76 10.12-1.5 3.92-2.24 8-2.24 12.24 0 4.133 0.7 8.08 2.12 11.84 1.44 3.76 3.53 7.053 6.28 9.88v0.36h-3.8zm18.36-7.08c-2.05 0-3.92-0.467-5.6-1.4-1.65-0.933-2.96-2.253-3.92-3.96-0.93-1.733-1.4-3.733-1.4-6 0-2.24 0.48-4.213 1.44-5.92 0.99-1.733 2.32-3.053 4-3.96 1.68-0.933 3.56-1.4 5.64-1.4s3.96 0.467 5.64 1.4c1.68 0.907 3 2.213 3.96 3.92 0.99 1.707 1.48 3.693 1.48 5.96s-0.51 4.267-1.52 6c-0.99 1.707-2.33 3.027-4.04 3.96s-3.6 1.4-5.68 1.4zm0-3.2c1.31 0 2.53-0.307 3.68-0.92s2.07-1.533 2.76-2.76c0.72-1.227 1.08-2.72 1.08-4.48s-0.35-3.253-1.04-4.48-1.6-2.133-2.72-2.72c-1.12-0.613-2.33-0.92-3.64-0.92-1.33 0-2.56 0.307-3.68 0.92-1.09 0.587-1.97 1.493-2.64 2.72s-1 2.72-1 4.48c0 1.787 0.32 3.293 0.96 4.52 0.67 1.227 1.55 2.147 2.64 2.76 1.09 0.587 2.29 0.88 3.6 0.88zm19.67-15.04c0.72-1.253 1.78-2.293 3.2-3.12 1.44-0.853 3.1-1.28 5-1.28 1.94 0 3.7 0.467 5.27 1.4 1.6 0.933 2.86 2.253 3.77 3.96 0.9 1.68 1.36 3.64 1.36 5.88 0 2.213-0.46 4.187-1.36 5.92-0.91 1.733-2.17 3.08-3.77 4.04-1.57 0.96-3.33 1.44-5.27 1.44-1.87 0-3.52-0.413-4.96-1.24-1.42-0.853-2.5-1.907-3.24-3.16v14.44h-3.64v-32.32h3.64v4.04zm14.88 6.84c0-1.653-0.34-3.093-1-4.32-0.67-1.227-1.58-2.16-2.72-2.8-1.12-0.64-2.36-0.96-3.72-0.96-1.34 0-2.58 0.333-3.72 1-1.12 0.64-2.03 1.587-2.72 2.84-0.67 1.227-1 2.653-1 4.28 0 1.653 0.33 3.107 1 4.36 0.69 1.227 1.6 2.173 2.72 2.84 1.14 0.64 2.38 0.96 3.72 0.96 1.36 0 2.6-0.32 3.72-0.96 1.14-0.667 2.05-1.613 2.72-2.84 0.66-1.253 1-2.72 1-4.4zm12.95-7.88v12.92c0 1.067 0.22 1.827 0.68 2.28 0.45 0.427 1.24 0.64 2.36 0.64h2.68v3.08h-3.28c-2.03 0-3.55-0.467-4.56-1.4-1.02-0.933-1.52-2.467-1.52-4.6v-12.92h-2.84v-3h2.84v-5.52h3.64v5.52h5.72v3h-5.72zm12.01-6.56c-0.7 0-1.28-0.24-1.76-0.72s-0.72-1.067-0.72-1.76 0.24-1.28 0.72-1.76 1.06-0.72 1.76-0.72c0.66 0 1.22 0.24 1.68 0.72 0.48 0.48 0.72 1.067 0.72 1.76s-0.24 1.28-0.72 1.76c-0.46 0.48-1.02 0.72-1.68 0.72zm1.76 3.56v21.92h-3.64v-21.92h3.64zm15.76 22.28c-2.05 0-3.92-0.467-5.6-1.4-1.65-0.933-2.96-2.253-3.92-3.96-0.93-1.733-1.4-3.733-1.4-6 0-2.24 0.48-4.213 1.44-5.92 0.99-1.733 2.32-3.053 4-3.96 1.68-0.933 3.56-1.4 5.64-1.4s3.96 0.467 5.64 1.4c1.68 0.907 3 2.213 3.96 3.92 0.99 1.707 1.48 3.693 1.48 5.96s-0.51 4.267-1.52 6c-0.99 1.707-2.33 3.027-4.04 3.96s-3.6 1.4-5.68 1.4zm0-3.2c1.31 0 2.53-0.307 3.68-0.92s2.07-1.533 2.76-2.76c0.72-1.227 1.08-2.72 1.08-4.48s-0.35-3.253-1.04-4.48-1.6-2.133-2.72-2.72c-1.12-0.613-2.33-0.92-3.64-0.92-1.33 0-2.56 0.307-3.68 0.92-1.09 0.587-1.97 1.493-2.64 2.72s-1 2.72-1 4.48c0 1.787 0.32 3.293 0.96 4.52 0.67 1.227 1.55 2.147 2.64 2.76 1.09 0.587 2.29 0.88 3.6 0.88zm26.71-19.48c2.66 0 4.82 0.813 6.48 2.44 1.65 1.6 2.48 3.92 2.48 6.96v12.92h-3.6v-12.4c0-2.187-0.55-3.853-1.64-5-1.1-1.173-2.59-1.76-4.48-1.76-1.92 0-3.46 0.6-4.6 1.8-1.12 1.2-1.68 2.947-1.68 5.24v12.12h-3.64v-21.92h3.64v3.12c0.72-1.12 1.69-1.987 2.92-2.6 1.25-0.613 2.62-0.92 4.12-0.92zm13.54 11.28c0-2.24 0.46-4.2 1.36-5.88 0.91-1.707 2.15-3.027 3.72-3.96 1.6-0.933 3.38-1.4 5.32-1.4 1.92 0 3.59 0.413 5 1.24 1.42 0.827 2.47 1.867 3.16 3.12v-4h3.68v21.92h-3.68v-4.08c-0.72 1.28-1.8 2.347-3.24 3.2-1.41 0.827-3.06 1.24-4.96 1.24-1.94 0-3.7-0.48-5.28-1.44-1.57-0.96-2.81-2.307-3.72-4.04-0.9-1.733-1.36-3.707-1.36-5.92zm18.56 0.04c0-1.653-0.33-3.093-1-4.32-0.66-1.227-1.57-2.16-2.72-2.8-1.12-0.667-2.36-1-3.72-1s-2.6 0.32-3.72 0.96-2.01 1.573-2.68 2.8c-0.66 1.227-1 2.667-1 4.32 0 1.68 0.34 3.147 1 4.4 0.67 1.227 1.56 2.173 2.68 2.84 1.12 0.64 2.36 0.96 3.72 0.96s2.6-0.32 3.72-0.96c1.15-0.667 2.06-1.613 2.72-2.84 0.67-1.253 1-2.707 1-4.36zm13.47-18.6v29.6h-3.64v-29.6h3.64zm5.05 37.04v-0.36c2.74-2.827 4.82-6.12 6.24-9.88 1.44-3.76 2.16-7.707 2.16-11.84 0-4.24-0.76-8.32-2.28-12.24-1.5-3.947-3.74-7.32-6.72-10.12v-0.36h3.8c2.8 2.587 4.94 5.88 6.44 9.88 1.52 3.973 2.28 8.253 2.28 12.84 0 4.48-0.72 8.653-2.16 12.52-1.42 3.867-3.4 7.053-5.96 9.56h-3.8z" fill="#fff"/>
<path d="m1439.4 582.32c-1.85 0-3.53-0.42-5.04-1.26-1.49-0.84-2.67-2.028-3.53-3.564-0.84-1.56-1.26-3.36-1.26-5.4 0-2.016 0.43-3.792 1.29-5.328 0.89-1.56 2.09-2.748 3.6-3.564 1.52-0.84 3.21-1.26 5.08-1.26s3.56 0.42 5.08 1.26c1.51 0.816 2.7 1.992 3.56 3.528 0.89 1.536 1.33 3.324 1.33 5.364s-0.45 3.84-1.37 5.4c-0.88 1.536-2.1 2.724-3.63 3.564-1.54 0.84-3.24 1.26-5.11 1.26zm0-2.88c1.17 0 2.28-0.276 3.31-0.828s1.86-1.38 2.48-2.484c0.65-1.104 0.97-2.448 0.97-4.032s-0.31-2.928-0.93-4.032c-0.63-1.104-1.44-1.92-2.45-2.448-1.01-0.552-2.1-0.828-3.28-0.828-1.2 0-2.3 0.276-3.31 0.828-0.98 0.528-1.77 1.344-2.37 2.448s-0.9 2.448-0.9 4.032c0 1.608 0.28 2.964 0.86 4.068 0.6 1.104 1.39 1.932 2.38 2.484 0.98 0.528 2.06 0.792 3.24 0.792zm17.7-13.536c0.64-1.128 1.6-2.064 2.88-2.808 1.29-0.768 2.79-1.152 4.5-1.152 1.75 0 3.33 0.42 4.75 1.26 1.44 0.84 2.57 2.028 3.38 3.564 0.82 1.512 1.23 3.276 1.23 5.292 0 1.992-0.41 3.768-1.23 5.328-0.81 1.56-1.94 2.772-3.38 3.636-1.42 0.864-3 1.296-4.75 1.296-1.68 0-3.17-0.372-4.47-1.116-1.27-0.768-2.24-1.716-2.91-2.844v12.996h-3.28v-29.088h3.28v3.636zm13.39 6.156c0-1.488-0.3-2.784-0.9-3.888s-1.42-1.944-2.45-2.52c-1.01-0.576-2.12-0.864-3.35-0.864-1.2 0-2.31 0.3-3.35 0.9-1 0.576-1.82 1.428-2.44 2.556-0.6 1.104-0.9 2.388-0.9 3.852 0 1.488 0.3 2.796 0.9 3.924 0.62 1.104 1.44 1.956 2.44 2.556 1.04 0.576 2.15 0.864 3.35 0.864 1.23 0 2.34-0.288 3.35-0.864 1.03-0.6 1.85-1.452 2.45-2.556 0.6-1.128 0.9-2.448 0.9-3.96zm6.43 0c0-2.016 0.41-3.78 1.23-5.292 0.81-1.536 1.93-2.724 3.35-3.564 1.44-0.84 3.03-1.26 4.78-1.26 1.73 0 3.23 0.372 4.5 1.116 1.28 0.744 2.22 1.68 2.85 2.808v-3.6h3.31v19.728h-3.31v-3.672c-0.65 1.152-1.62 2.112-2.92 2.88-1.27 0.744-2.76 1.116-4.46 1.116-1.75 0-3.34-0.432-4.75-1.296-1.42-0.864-2.54-2.076-3.35-3.636-0.82-1.56-1.23-3.336-1.23-5.328zm16.71 0.036c0-1.488-0.3-2.784-0.9-3.888s-1.42-1.944-2.45-2.52c-1.01-0.6-2.12-0.9-3.35-0.9-1.22 0-2.34 0.288-3.35 0.864-1 0.576-1.81 1.416-2.41 2.52s-0.9 2.4-0.9 3.888c0 1.512 0.3 2.832 0.9 3.96 0.6 1.104 1.41 1.956 2.41 2.556 1.01 0.576 2.13 0.864 3.35 0.864 1.23 0 2.34-0.288 3.35-0.864 1.03-0.6 1.85-1.452 2.45-2.556 0.6-1.128 0.9-2.436 0.9-3.924zm7.62 0c0-2.04 0.41-3.816 1.23-5.328 0.81-1.536 1.94-2.724 3.38-3.564 1.46-0.84 3.13-1.26 5-1.26 2.43 0 4.42 0.588 5.98 1.764 1.58 1.176 2.63 2.808 3.13 4.896h-3.53c-0.33-1.2-0.99-2.148-1.98-2.844-0.96-0.696-2.16-1.044-3.6-1.044-1.87 0-3.38 0.648-4.53 1.944-1.15 1.272-1.73 3.084-1.73 5.436 0 2.376 0.58 4.212 1.73 5.508s2.66 1.944 4.53 1.944c1.44 0 2.64-0.336 3.6-1.008s1.62-1.632 1.98-2.88h3.53c-0.53 2.016-1.58 3.636-3.17 4.86-1.58 1.2-3.56 1.8-5.94 1.8-1.87 0-3.54-0.42-5-1.26-1.44-0.84-2.57-2.028-3.38-3.564-0.82-1.536-1.23-3.336-1.23-5.4zm24.78-13.032c-0.62 0-1.15-0.216-1.58-0.648s-0.65-0.96-0.65-1.584 0.22-1.152 0.65-1.584 0.96-0.648 1.58-0.648c0.6 0 1.11 0.216 1.52 0.648 0.43 0.432 0.64 0.96 0.64 1.584s-0.21 1.152-0.64 1.584c-0.41 0.432-0.92 0.648-1.52 0.648zm1.59 3.204v19.728h-3.28v-19.728h3.28zm9.58 2.7v11.628c0 0.96 0.2 1.644 0.61 2.052 0.41 0.384 1.12 0.576 2.12 0.576h2.42v2.772h-2.96c-1.82 0-3.19-0.42-4.1-1.26s-1.37-2.22-1.37-4.14v-11.628h-2.55v-2.7h2.55v-4.968h3.28v4.968h5.15v2.7h-5.15zm26.11-2.7-11.88 29.016h-3.39l3.89-9.504-7.95-19.512h3.63l6.19 15.984 6.12-15.984h3.39zm20.92 2.7h-4.14v17.028h-3.28v-17.028h-2.56v-2.7h2.56v-1.404c0-2.208 0.56-3.816 1.69-4.824 1.15-1.032 2.99-1.548 5.51-1.548v2.736c-1.44 0-2.46 0.288-3.06 0.864-0.58 0.552-0.86 1.476-0.86 2.772v1.404h4.14v2.7zm7.09 0.504c0.58-1.128 1.39-2.004 2.45-2.628 1.08-0.624 2.39-0.936 3.92-0.936v3.384h-0.86c-3.67 0-5.51 1.992-5.51 5.976v10.728h-3.27v-19.728h3.27v3.204zm18.76 16.848c-1.85 0-3.53-0.42-5.04-1.26-1.49-0.84-2.66-2.028-3.53-3.564-0.84-1.56-1.26-3.36-1.26-5.4 0-2.016 0.43-3.792 1.3-5.328 0.89-1.56 2.09-2.748 3.6-3.564 1.51-0.84 3.2-1.26 5.07-1.26 1.88 0 3.57 0.42 5.08 1.26 1.51 0.816 2.7 1.992 3.56 3.528 0.89 1.536 1.34 3.324 1.34 5.364s-0.46 3.84-1.37 5.4c-0.89 1.536-2.1 2.724-3.64 3.564-1.53 0.84-3.24 1.26-5.11 1.26zm0-2.88c1.18 0 2.28-0.276 3.31-0.828s1.86-1.38 2.49-2.484c0.64-1.104 0.97-2.448 0.97-4.032s-0.31-2.928-0.94-4.032c-0.62-1.104-1.44-1.92-2.45-2.448-1-0.552-2.1-0.828-3.27-0.828-1.2 0-2.31 0.276-3.31 0.828-0.99 0.528-1.78 1.344-2.38 2.448s-0.9 2.448-0.9 4.032c0 1.608 0.29 2.964 0.86 4.068 0.6 1.104 1.4 1.932 2.38 2.484 0.98 0.528 2.06 0.792 3.24 0.792zm38.15-17.532c1.53 0 2.9 0.324 4.1 0.972 1.2 0.624 2.15 1.572 2.84 2.844 0.7 1.272 1.05 2.82 1.05 4.644v11.628h-3.24v-11.16c0-1.968-0.49-3.468-1.48-4.5-0.96-1.056-2.27-1.584-3.92-1.584-1.71 0-3.06 0.552-4.07 1.656-1.01 1.08-1.51 2.652-1.51 4.716v10.872h-3.24v-11.16c0-1.968-0.49-3.468-1.48-4.5-0.96-1.056-2.27-1.584-3.92-1.584-1.71 0-3.06 0.552-4.07 1.656-1.01 1.08-1.51 2.652-1.51 4.716v10.872h-3.28v-19.728h3.28v2.844c0.65-1.032 1.51-1.824 2.59-2.376 1.1-0.552 2.32-0.828 3.64-0.828 1.65 0 3.12 0.372 4.39 1.116s2.22 1.836 2.84 3.276c0.55-1.392 1.47-2.472 2.74-3.24s2.69-1.152 4.25-1.152zm-201.38 54.904h-12.64v8.208c0.55-0.768 1.37-1.392 2.45-1.872 1.08-0.504 2.24-0.756 3.49-0.756 1.99 0 3.61 0.42 4.86 1.26 1.25 0.816 2.14 1.884 2.67 3.204 0.55 1.296 0.82 2.676 0.82 4.14 0 1.728-0.32 3.276-0.97 4.644s-1.64 2.448-2.99 3.24c-1.32 0.792-2.96 1.188-4.93 1.188-2.52 0-4.56-0.648-6.12-1.944s-2.51-3.024-2.84-5.184h3.2c0.31 1.368 0.97 2.436 1.98 3.204s2.28 1.152 3.82 1.152c1.89 0 3.32-0.564 4.28-1.692 0.96-1.152 1.44-2.664 1.44-4.536s-0.48-3.312-1.44-4.32c-0.96-1.032-2.37-1.548-4.25-1.548-1.27 0-2.38 0.312-3.34 0.936-0.94 0.6-1.62 1.428-2.06 2.484h-3.09v-14.688h15.66v2.88zm20.14 6.156v11.628c0 0.96 0.21 1.644 0.61 2.052 0.41 0.384 1.12 0.576 2.13 0.576h2.41v2.772h-2.95c-1.83 0-3.19-0.42-4.11-1.26-0.91-0.84-1.36-2.22-1.36-4.14v-11.628h-2.56v-2.7h2.56v-4.968h3.27v4.968h5.15v2.7h-5.15zm17.72 17.352c-1.85 0-3.53-0.42-5.04-1.26-1.49-0.84-2.66-2.028-3.53-3.564-0.84-1.56-1.26-3.36-1.26-5.4 0-2.016 0.44-3.792 1.3-5.328 0.89-1.56 2.09-2.748 3.6-3.564 1.51-0.84 3.2-1.26 5.08-1.26 1.87 0 3.56 0.42 5.07 1.26 1.51 0.816 2.7 1.992 3.57 3.528 0.88 1.536 1.33 3.324 1.33 5.364s-0.46 3.84-1.37 5.4c-0.89 1.536-2.1 2.724-3.64 3.564-1.53 0.84-3.24 1.26-5.11 1.26zm0-2.88c1.18 0 2.28-0.276 3.31-0.828 1.04-0.552 1.86-1.38 2.49-2.484 0.65-1.104 0.97-2.448 0.97-4.032s-0.31-2.928-0.94-4.032c-0.62-1.104-1.44-1.92-2.44-2.448-1.01-0.552-2.1-0.828-3.28-0.828-1.2 0-2.3 0.276-3.31 0.828-0.99 0.528-1.78 1.344-2.38 2.448s-0.9 2.448-0.9 4.032c0 1.608 0.29 2.964 0.87 4.068 0.6 1.104 1.39 1.932 2.37 2.484 0.99 0.528 2.07 0.792 3.24 0.792zm27.7-4.428c0.24 1.368 0.79 2.424 1.65 3.168 0.89 0.744 2.08 1.116 3.57 1.116 1.99 0 3.45-0.78 4.39-2.34 0.96-1.56 1.41-4.188 1.37-7.884-0.51 1.08-1.35 1.932-2.52 2.556-1.18 0.6-2.49 0.9-3.93 0.9-1.61 0-3.05-0.324-4.32-0.972-1.25-0.672-2.23-1.644-2.95-2.916s-1.08-2.808-1.08-4.608c0-2.568 0.74-4.632 2.23-6.192 1.49-1.584 3.6-2.376 6.34-2.376 3.36 0 5.71 1.092 7.05 3.276 1.37 2.184 2.06 5.436 2.06 9.756 0 3.024-0.28 5.52-0.83 7.488-0.53 1.968-1.44 3.468-2.74 4.5-1.27 1.032-3.02 1.548-5.25 1.548-2.45 0-4.36-0.66-5.73-1.98s-2.15-3-2.34-5.04h3.03zm5.07-5.256c1.61 0 2.93-0.492 3.96-1.476 1.03-1.008 1.55-2.364 1.55-4.068 0-1.8-0.5-3.252-1.51-4.356s-2.43-1.656-4.25-1.656c-1.68 0-3.02 0.528-4.03 1.584-0.99 1.056-1.48 2.448-1.48 4.176 0 1.752 0.49 3.156 1.48 4.212 0.98 1.056 2.41 1.584 4.28 1.584zm29.99-10.944h-12.64v8.208c0.55-0.768 1.37-1.392 2.45-1.872 1.08-0.504 2.24-0.756 3.49-0.756 1.99 0 3.61 0.42 4.86 1.26 1.25 0.816 2.14 1.884 2.66 3.204 0.56 1.296 0.83 2.676 0.83 4.14 0 1.728-0.32 3.276-0.97 4.644s-1.64 2.448-2.99 3.24c-1.32 0.792-2.96 1.188-4.93 1.188-2.52 0-4.56-0.648-6.12-1.944s-2.51-3.024-2.84-5.184h3.2c0.31 1.368 0.97 2.436 1.98 3.204s2.28 1.152 3.82 1.152c1.89 0 3.32-0.564 4.28-1.692 0.96-1.152 1.44-2.664 1.44-4.536s-0.48-3.312-1.44-4.32c-0.96-1.032-2.38-1.548-4.25-1.548-1.27 0-2.39 0.312-3.35 0.936-0.93 0.6-1.62 1.428-2.05 2.484h-3.09v-14.688h15.66v2.88zm14.92 13.248c0-2.016 0.41-3.78 1.22-5.292 0.82-1.536 1.93-2.724 3.35-3.564 1.44-0.84 3.04-1.26 4.79-1.26 1.73 0 3.23 0.372 4.5 1.116s2.22 1.68 2.84 2.808v-3.6h3.31v19.728h-3.31v-3.672c-0.65 1.152-1.62 2.112-2.91 2.88-1.28 0.744-2.76 1.116-4.47 1.116-1.75 0-3.33-0.432-4.75-1.296s-2.53-2.076-3.35-3.636c-0.81-1.56-1.22-3.336-1.22-5.328zm16.7 0.036c0-1.488-0.3-2.784-0.9-3.888s-1.41-1.944-2.45-2.52c-1-0.6-2.12-0.9-3.34-0.9-1.23 0-2.34 0.288-3.35 0.864s-1.81 1.416-2.41 2.52-0.9 2.4-0.9 3.888c0 1.512 0.3 2.832 0.9 3.96 0.6 1.104 1.4 1.956 2.41 2.556 1.01 0.576 2.12 0.864 3.35 0.864 1.22 0 2.34-0.288 3.34-0.864 1.04-0.6 1.85-1.452 2.45-2.556 0.6-1.128 0.9-2.436 0.9-3.924zm18.46-10.188c2.4 0 4.35 0.732 5.83 2.196 1.49 1.44 2.24 3.528 2.24 6.264v11.628h-3.24v-11.16c0-1.968-0.5-3.468-1.48-4.5-0.98-1.056-2.33-1.584-4.03-1.584-1.73 0-3.11 0.54-4.14 1.62-1.01 1.08-1.51 2.652-1.51 4.716v10.908h-3.28v-19.728h3.28v2.808c0.64-1.008 1.52-1.788 2.62-2.34 1.13-0.552 2.37-0.828 3.71-0.828zm12.19 10.152c0-2.016 0.41-3.78 1.23-5.292 0.81-1.536 1.93-2.724 3.35-3.564 1.44-0.84 3.04-1.26 4.82-1.26 1.54 0 2.96 0.36 4.28 1.08 1.32 0.696 2.33 1.62 3.03 2.772v-10.44h3.31v26.64h-3.31v-3.708c-0.65 1.176-1.61 2.148-2.88 2.916-1.27 0.744-2.76 1.116-4.47 1.116-1.75 0-3.34-0.432-4.78-1.296-1.42-0.864-2.54-2.076-3.35-3.636-0.82-1.56-1.23-3.336-1.23-5.328zm16.71 0.036c0-1.488-0.3-2.784-0.9-3.888s-1.42-1.944-2.45-2.52c-1.01-0.6-2.12-0.9-3.35-0.9-1.22 0-2.34 0.288-3.35 0.864-1 0.576-1.81 1.416-2.41 2.52s-0.9 2.4-0.9 3.888c0 1.512 0.3 2.832 0.9 3.96 0.6 1.104 1.41 1.956 2.41 2.556 1.01 0.576 2.13 0.864 3.35 0.864 1.23 0 2.34-0.288 3.35-0.864 1.03-0.6 1.85-1.452 2.45-2.556 0.6-1.128 0.9-2.436 0.9-3.924zm17.22-0.036c0-2.016 0.41-3.78 1.22-5.292 0.82-1.536 1.94-2.724 3.35-3.564 1.44-0.84 3.04-1.26 4.79-1.26 1.73 0 3.23 0.372 4.5 1.116s2.22 1.68 2.84 2.808v-3.6h3.32v19.728h-3.32v-3.672c-0.64 1.152-1.62 2.112-2.91 2.88-1.27 0.744-2.76 1.116-4.47 1.116-1.75 0-3.33-0.432-4.75-1.296-1.41-0.864-2.53-2.076-3.35-3.636-0.81-1.56-1.22-3.336-1.22-5.328zm16.7 0.036c0-1.488-0.3-2.784-0.9-3.888s-1.41-1.944-2.44-2.52c-1.01-0.6-2.13-0.9-3.35-0.9-1.23 0-2.34 0.288-3.35 0.864s-1.81 1.416-2.41 2.52-0.9 2.4-0.9 3.888c0 1.512 0.3 2.832 0.9 3.96 0.6 1.104 1.4 1.956 2.41 2.556 1.01 0.576 2.12 0.864 3.35 0.864 1.22 0 2.34-0.288 3.35-0.864 1.03-0.6 1.84-1.452 2.44-2.556 0.6-1.128 0.9-2.436 0.9-3.924zm-205.85 47.812c1.53 0 2.9 0.324 4.1 0.972 1.2 0.624 2.15 1.572 2.84 2.844 0.7 1.272 1.05 2.82 1.05 4.644v11.628h-3.24v-11.16c0-1.968-0.49-3.468-1.48-4.5-0.96-1.056-2.27-1.584-3.92-1.584-1.71 0-3.06 0.552-4.07 1.656-1.01 1.08-1.51 2.652-1.51 4.716v10.872h-3.24v-11.16c0-1.968-0.49-3.468-1.48-4.5-0.96-1.056-2.27-1.584-3.92-1.584-1.71 0-3.06 0.552-4.07 1.656-1.01 1.08-1.51 2.652-1.51 4.716v10.872h-3.28v-19.728h3.28v2.844c0.65-1.032 1.51-1.824 2.59-2.376 1.1-0.552 2.32-0.828 3.64-0.828 1.65 0 3.12 0.372 4.39 1.116s2.22 1.836 2.84 3.276c0.55-1.392 1.47-2.472 2.74-3.24s2.69-1.152 4.25-1.152zm30.86 0.36v19.728h-3.28v-2.916c-0.62 1.008-1.5 1.8-2.63 2.376-1.1 0.552-2.32 0.828-3.67 0.828-1.53 0-2.91-0.312-4.14-0.936-1.22-0.648-2.19-1.608-2.91-2.88-0.7-1.272-1.05-2.82-1.05-4.644v-11.556h3.24v11.124c0 1.944 0.49 3.444 1.48 4.5 0.98 1.032 2.33 1.548 4.03 1.548 1.75 0 3.13-0.54 4.14-1.62s1.51-2.652 1.51-4.716v-10.836h3.28zm8.81-6.912v26.64h-3.28v-26.64h3.28zm9.57 9.612v11.628c0 0.96 0.21 1.644 0.62 2.052 0.4 0.384 1.11 0.576 2.12 0.576h2.41v2.772h-2.95c-1.82 0-3.19-0.42-4.1-1.26-0.92-0.84-1.37-2.22-1.37-4.14v-11.628h-2.56v-2.7h2.56v-4.968h3.27v4.968h5.15v2.7h-5.15zm10.81-5.904c-0.62 0-1.15-0.216-1.58-0.648s-0.65-0.96-0.65-1.584 0.22-1.152 0.65-1.584 0.96-0.648 1.58-0.648c0.6 0 1.11 0.216 1.52 0.648 0.43 0.432 0.64 0.96 0.64 1.584s-0.21 1.152-0.64 1.584c-0.41 0.432-0.92 0.648-1.52 0.648zm1.59 3.204v19.728h-3.28v-19.728h3.28zm8.86 3.636c0.65-1.128 1.61-2.064 2.88-2.808 1.29-0.768 2.79-1.152 4.5-1.152 1.75 0 3.33 0.42 4.75 1.26 1.44 0.84 2.57 2.028 3.38 3.564 0.82 1.512 1.23 3.276 1.23 5.292 0 1.992-0.41 3.768-1.23 5.328-0.81 1.56-1.94 2.772-3.38 3.636-1.42 0.864-3 1.296-4.75 1.296-1.68 0-3.17-0.372-4.47-1.116-1.27-0.768-2.24-1.716-2.91-2.844v12.996h-3.28v-29.088h3.28v3.636zm13.39 6.156c0-1.488-0.3-2.784-0.9-3.888s-1.42-1.944-2.45-2.52c-1.01-0.576-2.12-0.864-3.35-0.864-1.2 0-2.31 0.3-3.34 0.9-1.01 0.576-1.83 1.428-2.45 2.556-0.6 1.104-0.9 2.388-0.9 3.852 0 1.488 0.3 2.796 0.9 3.924 0.62 1.104 1.44 1.956 2.45 2.556 1.03 0.576 2.14 0.864 3.34 0.864 1.23 0 2.34-0.288 3.35-0.864 1.03-0.6 1.85-1.452 2.45-2.556 0.6-1.128 0.9-2.448 0.9-3.96zm10.94-16.704v26.64h-3.28v-26.64h3.28zm23.58 16.02c0 0.624-0.04 1.284-0.11 1.98h-15.77c0.12 1.944 0.78 3.468 1.98 4.572 1.23 1.08 2.7 1.62 4.43 1.62 1.42 0 2.59-0.324 3.53-0.972 0.96-0.672 1.63-1.56 2.01-2.664h3.53c-0.53 1.896-1.58 3.444-3.17 4.644-1.58 1.176-3.55 1.764-5.9 1.764-1.87 0-3.55-0.42-5.04-1.26-1.46-0.84-2.62-2.028-3.46-3.564-0.84-1.56-1.26-3.36-1.26-5.4s0.41-3.828 1.23-5.364c0.81-1.536 1.95-2.712 3.42-3.528 1.49-0.84 3.19-1.26 5.11-1.26 1.87 0 3.53 0.408 4.97 1.224s2.54 1.944 3.31 3.384c0.79 1.416 1.19 3.024 1.19 4.824zm-3.39-0.684c0-1.248-0.27-2.316-0.82-3.204-0.56-0.912-1.31-1.596-2.27-2.052-0.94-0.48-1.98-0.72-3.13-0.72-1.66 0-3.08 0.528-4.25 1.584-1.15 1.056-1.81 2.52-1.98 4.392h12.45zm25.91 11.628c-1.84 0-3.52-0.42-5.04-1.26-1.48-0.84-2.66-2.028-3.52-3.564-0.84-1.56-1.26-3.36-1.26-5.4 0-2.016 0.43-3.792 1.29-5.328 0.89-1.56 2.09-2.748 3.6-3.564 1.51-0.84 3.21-1.26 5.08-1.26s3.56 0.42 5.07 1.26c1.52 0.816 2.7 1.992 3.57 3.528 0.89 1.536 1.33 3.324 1.33 5.364s-0.46 3.84-1.37 5.4c-0.89 1.536-2.1 2.724-3.63 3.564-1.54 0.84-3.24 1.26-5.12 1.26zm0-2.88c1.18 0 2.28-0.276 3.32-0.828 1.03-0.552 1.86-1.38 2.48-2.484 0.65-1.104 0.97-2.448 0.97-4.032s-0.31-2.928-0.93-4.032c-0.63-1.104-1.44-1.92-2.45-2.448-1.01-0.552-2.1-0.828-3.28-0.828-1.2 0-2.3 0.276-3.31 0.828-0.98 0.528-1.78 1.344-2.38 2.448s-0.9 2.448-0.9 4.032c0 1.608 0.29 2.964 0.87 4.068 0.6 1.104 1.39 1.932 2.37 2.484 0.99 0.528 2.07 0.792 3.24 0.792zm22.46-14.472h-4.14v17.028h-3.28v-17.028h-2.56v-2.7h2.56v-1.404c0-2.208 0.56-3.816 1.69-4.824 1.15-1.032 2.99-1.548 5.51-1.548v2.736c-1.44 0-2.46 0.288-3.06 0.864-0.58 0.552-0.86 1.476-0.86 2.772v1.404h4.14v2.7zm29.47-6.156h-12.64v8.208c0.56-0.768 1.37-1.392 2.45-1.872 1.08-0.504 2.25-0.756 3.49-0.756 2 0 3.62 0.42 4.86 1.26 1.25 0.816 2.14 1.884 2.67 3.204 0.55 1.296 0.83 2.676 0.83 4.14 0 1.728-0.33 3.276-0.98 4.644-0.64 1.368-1.64 2.448-2.98 3.24-1.32 0.792-2.97 1.188-4.94 1.188-2.52 0-4.56-0.648-6.12-1.944s-2.5-3.024-2.84-5.184h3.2c0.32 1.368 0.98 2.436 1.98 3.204 1.01 0.768 2.28 1.152 3.82 1.152 1.9 0 3.32-0.564 4.28-1.692 0.96-1.152 1.44-2.664 1.44-4.536s-0.48-3.312-1.44-4.32c-0.96-1.032-2.37-1.548-4.24-1.548-1.28 0-2.39 0.312-3.35 0.936-0.94 0.6-1.62 1.428-2.05 2.484h-3.1v-14.688h15.66v2.88z" fill="#ddd"/>
<circle cx="1434" cy="513" r="10" fill="#A954FF"/>
</svg>
