<svg width="461" height="478" viewBox="0 0 461 478" fill="none" xmlns="http://www.w3.org/2000/svg">
<path d="M194 83.8809H64C37.4903 83.8809 16 105.371 16 131.881V413.881C16 440.391 37.4903 461.881 64 461.881H397C423.51 461.881 445 440.391 445 413.881L445 255.881" stroke="#FAFAFA" stroke-width="32" stroke-linecap="round"/>
<path d="M130.006 306.888C127.801 315.445 132.95 324.169 141.507 326.375C150.064 328.58 158.788 323.431 160.994 314.875L130.006 306.888ZM233 168.881L222.379 156.915L222.379 156.915L233 168.881ZM453.976 110.903C459.218 103.789 457.7 93.7723 450.586 88.5306L334.657 3.11221C327.543 -2.12949 317.526 -0.611672 312.285 6.50235C307.043 13.6164 308.561 23.6327 315.675 28.8744L418.723 104.802L342.796 207.85C337.554 214.964 339.072 224.981 346.186 230.222C353.3 235.464 363.316 233.946 368.558 226.832L453.976 110.903ZM145.5 310.881C160.994 314.875 160.993 314.879 160.992 314.882C160.991 314.883 160.991 314.887 160.99 314.888C160.989 314.891 160.989 314.893 160.989 314.894C160.988 314.896 160.989 314.892 160.991 314.884C160.996 314.867 161.005 314.83 161.02 314.774C161.05 314.663 161.101 314.473 161.175 314.21C161.321 313.684 161.554 312.861 161.881 311.769C162.535 309.585 163.559 306.326 164.998 302.201C167.879 293.943 172.401 282.263 178.905 268.815C191.967 241.802 212.714 208.281 243.621 180.848L222.379 156.915C187.287 188.063 164.284 225.542 150.096 254.884C142.974 269.613 137.997 282.449 134.783 291.663C133.175 296.273 132.004 299.989 131.224 302.595C130.834 303.899 130.542 304.926 130.341 305.65C130.24 306.012 130.163 306.299 130.107 306.506C130.079 306.61 130.057 306.694 130.04 306.757C130.032 306.789 130.025 306.816 130.019 306.838C130.016 306.849 130.014 306.858 130.012 306.867C130.011 306.871 130.009 306.876 130.009 306.878C130.008 306.883 130.006 306.888 145.5 310.881ZM243.621 180.848C275.123 152.886 296.854 141.748 323.592 135.079C337.484 131.614 352.991 129.299 372.584 126.756C391.982 124.238 415.216 121.516 443.493 117.231L438.698 85.5923C410.871 89.8091 388.292 92.4487 368.465 95.0222C348.833 97.5703 331.704 100.076 315.848 104.03C283.09 112.2 256.877 126.295 222.379 156.915L243.621 180.848Z" fill="#FAFAFA"/>
</svg>
