<svg width="461" height="478" viewBox="0 0 461 478" fill="none" xmlns="http://www.w3.org/2000/svg">
<path d="M194 84H64C37.4903 84 16 105.49 16 132V414C16 440.51 37.4903 462 64 462H397C423.51 462 445 440.51 445 414L445 256" stroke="black" stroke-width="32" stroke-linecap="round"/>
<path d="M130.006 307.007C127.801 315.564 132.95 324.289 141.507 326.494C150.064 328.699 158.788 323.551 160.994 314.994L130.006 307.007ZM233 169.001L222.379 157.034L222.379 157.034L233 169.001ZM453.976 111.022C459.218 103.908 457.7 93.8915 450.586 88.6498L334.657 3.23135C327.543 -2.01035 317.526 -0.492532 312.285 6.62149C307.043 13.7355 308.561 23.7518 315.675 28.9935L418.723 104.921L342.796 207.97C337.554 215.084 339.072 225.1 346.186 230.342C353.3 235.583 363.316 234.065 368.558 226.951L453.976 111.022ZM145.5 311C160.994 314.994 160.993 314.998 160.992 315.001C160.991 315.002 160.991 315.006 160.99 315.007C160.989 315.011 160.989 315.013 160.989 315.013C160.988 315.015 160.989 315.011 160.991 315.003C160.996 314.986 161.005 314.949 161.02 314.894C161.05 314.782 161.101 314.592 161.175 314.329C161.321 313.803 161.554 312.98 161.881 311.889C162.535 309.704 163.559 306.445 164.998 302.32C167.879 294.062 172.401 282.382 178.905 268.934C191.967 241.921 212.714 208.4 243.621 180.967L222.379 157.034C187.287 188.182 164.284 225.662 150.096 255.003C142.974 269.732 137.997 282.569 134.783 291.782C133.175 296.393 132.004 300.108 131.224 302.715C130.834 304.018 130.542 305.045 130.341 305.769C130.24 306.131 130.163 306.418 130.107 306.625C130.079 306.729 130.057 306.813 130.04 306.876C130.032 306.908 130.025 306.935 130.019 306.957C130.016 306.968 130.014 306.977 130.012 306.986C130.011 306.99 130.009 306.995 130.009 306.997C130.008 307.002 130.006 307.007 145.5 311ZM243.621 180.967C275.123 153.006 296.854 141.867 323.592 135.198C337.484 131.733 352.991 129.418 372.584 126.875C391.982 124.357 415.216 121.635 443.493 117.35L438.698 85.7114C410.871 89.9282 388.292 92.5679 368.465 95.1413C348.833 97.6895 331.704 100.195 315.848 104.149C283.09 112.319 256.877 126.414 222.379 157.034L243.621 180.967Z" fill="black"/>
</svg>
