<svg width="485" height="485" viewBox="0 0 485 485" fill="none" xmlns="http://www.w3.org/2000/svg">
<rect x="461.882" y="83.3066" width="535.386" height="85.8135" rx="26" transform="rotate(135 461.882 83.3066)" stroke="black" stroke-width="32"/>
<line x1="350.603" y1="186.33" x2="285.142" y2="120.87" stroke="black" stroke-width="32"/>
<path d="M79.8819 54.207C81.8149 48.9833 89.2032 48.9833 91.1361 54.207L107.509 98.4548C108.117 100.097 109.412 101.392 111.054 102L155.302 118.373C160.526 120.306 160.526 127.694 155.302 129.627L111.054 146C109.412 146.608 108.117 147.903 107.509 149.545L91.1361 193.793C89.2032 199.017 81.8149 199.017 79.8819 193.793L63.5088 149.545C62.901 147.903 61.6062 146.608 59.9639 146L15.7161 129.627C10.4924 127.694 10.4924 120.306 15.7161 118.373L59.9639 102C61.6062 101.392 62.901 100.097 63.5088 98.4548L79.8819 54.207Z" fill="black"/>
<path d="M377.882 282.207C379.815 276.983 387.203 276.983 389.136 282.207L405.509 326.455C406.117 328.097 407.412 329.392 409.054 330L453.302 346.373C458.526 348.306 458.526 355.694 453.302 357.627L409.054 374C407.412 374.608 406.117 375.903 405.509 377.545L389.136 421.793C387.203 427.017 379.815 427.017 377.882 421.793L361.509 377.545C360.901 375.903 359.606 374.608 357.964 374L313.716 357.627C308.492 355.694 308.492 348.306 313.716 346.373L357.964 330C359.606 329.392 360.901 328.097 361.509 326.455L377.882 282.207Z" fill="black"/>
<path d="M207.526 22.5474C209.459 17.3237 216.847 17.3237 218.78 22.5474L229.177 50.6441C229.785 52.2864 231.079 53.5813 232.722 54.189L260.818 64.5857C266.042 66.5186 266.042 73.907 260.818 75.8399L232.722 86.2366C231.079 86.8444 229.785 88.1392 229.177 89.7815L218.78 117.878C216.847 123.102 209.459 123.102 207.526 117.878L197.129 89.7815C196.521 88.1392 195.227 86.8444 193.584 86.2366L165.488 75.8399C160.264 73.907 160.264 66.5186 165.488 64.5857L193.584 54.189C195.227 53.5813 196.521 52.2864 197.129 50.6441L207.526 22.5474Z" fill="black"/>
</svg>
