              <svg
                viewBox="0 0 448 448"
                fill="none"
                xmlns="http://www.w3.org/2000/svg"
              >
                <path
                  d="M388 10H60C32.3858 10 10 32.3858 10 60V388C10 415.614 32.3858 438 60 438H388C415.614 438 438 415.614 438 388V60C438 32.3858 415.614 10 388 10Z"
                  stroke="#FAFAFA"
                  stroke-width="20"
                />
                <path
                  d="M330 342C342.703 342 353 331.703 353 319C353 306.297 342.703 296 330 296C317.297 296 307 306.297 307 319C307 331.703 317.297 342 330 342Z"
                  fill="#FAFAFA"
                  stroke="#FAFAFA"
                  stroke-width="20"
                />
                <path
                  d="M128 342C140.703 342 151 331.703 151 319C151 306.297 140.703 296 128 296C115.297 296 105 306.297 105 319C105 331.703 115.297 342 128 342Z"
                  fill="#FAFAFA"
                  stroke="#FAFAFA"
                  stroke-width="20"
                />
                <path
                  d="M128 150C140.703 150 151 139.703 151 127C151 114.297 140.703 104 128 104C115.297 104 105 114.297 105 127C105 139.703 115.297 150 128 150Z"
                  fill="#FAFAFA"
                  stroke="#FAFAFA"
                  stroke-width="20"
                />
                <path
                  d="M320 150C332.703 150 343 139.703 343 127C343 114.297 332.703 104 320 104C307.297 104 297 114.297 297 127C297 139.703 307.297 150 320 150Z"
                  fill="#FAFAFA"
                  stroke="#FAFAFA"
                  stroke-width="20"
                />
                <path
                  d="M224 247C236.703 247 247 236.703 247 224C247 211.297 236.703 201 224 201C211.297 201 201 211.297 201 224C201 236.703 211.297 247 224 247Z"
                  fill="#FAFAFA"
                  stroke="#FAFAFA"
                  stroke-width="20"
                />
              </svg>